<svg xmlns="http://www.w3.org/2000/svg" viewBox="0 0 450.68 427.12"><title>Asset 17</title><g id="Layer_2" data-name="Layer 2"><g id="Слой_1" data-name="Слой 1"><path d="M34.49,287.94c-57.2-38.7-41.7-143.2,35-189.5s98.4-117.5,210.3-93.7c112.8,23.9,200.6,196.6,161.4,295.7S267.29,452.54,165.29,415,105.89,336.34,34.49,287.94Z" fill="#fdd29d"/><path d="M322,363.84l-32.9-21.7.2-1.8,5.1-41.4-57.6-45-.2.2-1.1-1.2-2.4-2c-1.3-1.1-3.2-2.6-5.3-4.5-3-2.5-8.9-7.5-16.4-13.9l-99.2,107.6L93,320.94l.8-1.8,15.1-36.9-5.8-5.8-.1-.4-.2-.2v-.4l-.4-1.2h.1v-.1a15.26,15.26,0,0,1-.2-3.4,15.57,15.57,0,0,1,4.4-9.7,15.14,15.14,0,0,1,9.7-4.4,12.12,12.12,0,0,1,2.8.1l9.8-24-7.7-7.7-.9.3v-1.9l-.4-1.2h.1a14.76,14.76,0,0,1,4.2-13.1,14.35,14.35,0,0,1,9.7-4.4,11.43,11.43,0,0,1,3.4.2h0v-.1l1.2.4h1.6l11.4-27.9c-6.5-6.6-13.3-13.5-18.7-19.1-2.6-2.7-4.8-4.9-6.3-6.5l-.8-.8a9.32,9.32,0,0,0-1-1l-.4-.4-.2-.2-20.6-22.1c-6.2-6.7-9.9-11.7-12.7-17.2-3-5.8-5-12.2-6.8-21.4l-.1-.4v-.4c.2-3.5.4-6.2,1.4-8.9a21.09,21.09,0,0,1,5.4-7.9l.2-.2a20.86,20.86,0,0,1,6.5-4.2,29.93,29.93,0,0,1,9.2-1.6h.5l.5.2c16.2,5.3,24.2,10.1,37.3,19.8l.2.1,22.3,18.4.1-.1,1.2,1.2.4.4.1.1,1,1,2.5,2.4c1.3,1.3,3,2.9,4.8,4.7,6.8,6.6,13.2,12.9,19.1,18.8l27.6-11.3v-1.6l-.4-1.2h.1a14.76,14.76,0,0,1,4.2-13.1,14.35,14.35,0,0,1,9.7-4.4,11.43,11.43,0,0,1,3.4.2h0v-.1l1.3.4h1.7l-.3.9,7.7,7.7,24-9.8a27.15,27.15,0,0,1-.1-2.8,15.35,15.35,0,0,1,4.4-9.7,14.35,14.35,0,0,1,9.7-4.4,13,13,0,0,1,3.4.2h.1v-.1l1.3.4h1.2v.6l.2.1,5.3,5.3L340,73.44l19.2,19.2-107.4,99.1c4.5,5.2,9.2,10.8,13.9,16.4,1.6,1.9,3,3.5,4,4.8l1.3,1.5a8.18,8.18,0,0,0,.8.9l.3.4.5.3v.3l45.6,58.4,43.2-5.3,21.7,32.9-4.3.9-46.2,10.2Zm-29.7-23.3,27.7,18.3h0l10.6-48.1,48.1-10.6h0l-18.3-27.6-43,5.3-48-61.3h0l-.3-.3-1.3-1.5c-1.1-1.3-2.4-2.9-4-4.8-5.1-6-10.1-11.9-14.9-17.5l-.9-1.1,107.3-98.9-15.6-15.6h0L301,92.74l-6.6-6.6L294,86c-.1,0-.4-.1-.8-.2a12.21,12.21,0,0,0-2.7-.1,12,12,0,0,0-11.2,11.2,13.36,13.36,0,0,0,.1,2.8l.3,1.8L251.59,113l-9.2-9.2-.4-.1a4.5,4.5,0,0,1-.8-.2,11,11,0,0,0-2.7-.1,12,12,0,0,0-7.7,3.5,11.62,11.62,0,0,0-3.5,7.7,10.71,10.71,0,0,0,.1,2.7c.1.3.1.6.2.8l.1.2v.2l3,3-34.3,14-.7-.7c-6.1-6.1-12.8-12.6-19.8-19.5-1.9-1.8-3.5-3.4-4.8-4.7l-2.4-2.4-.6-.6h0l-1.1-1.1-23.4-19.2c-12.8-9.5-20.7-14.2-36.3-19.3h0a27.22,27.22,0,0,0-8.3,1.4,16.15,16.15,0,0,0-5.7,3.8l-.1.1a17.65,17.65,0,0,0-4.6,6.6,25.93,25.93,0,0,0-1.2,8h0c1.7,8.8,3.6,15,6.5,20.5,2.7,5.2,6.2,10,12.2,16.5l20.8,22.3.4.4.1.1.3.3h0c.2.2.3.4.5.6l.8.8c1.5,1.6,3.6,3.8,6.3,6.5,5.6,5.8,12.7,13,19.4,19.8l.7.7L141.19,211l-3.1-3.1H138l-.2-.1a3.09,3.09,0,0,1-.8-.2,11,11,0,0,0-2.7-.1,12,12,0,0,0-7.7,3.5,11.28,11.28,0,0,0-3.5,7.7,10.71,10.71,0,0,0,.1,2.7c.1.3.1.6.2.8l.1.2v.2l9.2,9.2L121.19,260l-1.2-.3c-.1,0-.3-.1-.4-.1a12.37,12.37,0,0,0-10.5,3.4,11.69,11.69,0,0,0-3.5,7.7,10.71,10.71,0,0,0,.1,2.7,4.54,4.54,0,0,0,.2.8v.1l.1.2,6.6,6.6-15.9,38.7,15.6,15.6h0l99.1-107.5,1.1.9c8,6.9,14.4,12.3,17.5,14.9,2.2,1.8,4,3.4,5.3,4.5l2.5,2.1,60,46.9Z" fill="#fff"/><path d="M339.69,76.84l15.6,15.6L248,191.34c12.4,14.3,22.4,26.4,22.4,26.4l47,60.2.1-.1,42.8-5.3,18.3,27.7-48.1,10.6-10.6,48.1-27.7-18.3,5.3-42.8.1-.1-60.2-47s-12.1-10-26.4-22.4l-99.1,107.5-15.6-15.6,15.9-38.7-6.7-6.7a11.65,11.65,0,0,1,3.2-11.5,11.93,11.93,0,0,1,11.5-3.2l.5.5,11.7-28.6-9.2-9.2a12.14,12.14,0,0,1,14.7-14.7l3.1,3.1,14.2-34.6c-15.3-15.4-28.7-29.4-28.7-29.4l-20.6-22c-11-11.9-15.4-19.8-18.8-37,.3-6.5,1-9.9,5.9-14.8,3.9-3.5,6.8-4.9,14-5.2,15.4,5,23.2,9.6,36.4,19.4l23.4,19.2s14.1,13.4,29.5,28.8l34.3-14.1-3.1-3.1a11.65,11.65,0,0,1,3.2-11.5,11.93,11.93,0,0,1,11.5-3.2l9.2,9.2,28.5-11.7-.5-.5a11.93,11.93,0,0,1,3.2-11.5,12.1,12.1,0,0,1,11.6-3.2l6.7,6.7Z" fill="#acd8cf"/><rect x="188.38" y="182.15" width="3" height="57.3" transform="translate(-93.79 206.43) rotate(-47.11)" fill="#fff"/><path d="M105.89,111.64c4.4-14.6,17.9-22.1,24.1-24.1l-6.2-6.2c-14.7,4.1-19.8,9.5-24.1,24.1Z" fill="#fff"/><path d="M156.19,103.44a1.65,1.65,0,0,1,2.4.3c1.2,1.4,2.4,2.8,3.6,4.1a1.67,1.67,0,1,1-2.5,2.2c-1.2-1.4-2.4-2.7-3.6-4.1A1.84,1.84,0,0,1,156.19,103.44Zm9.6,11a1.73,1.73,0,0,1,2.4.2c1.2,1.4,2.4,2.7,3.6,4.1a1.67,1.67,0,1,1-2.5,2.2c-1.2-1.3-2.4-2.7-3.6-4.1A1.82,1.82,0,0,1,165.79,114.44Zm9.7,10.9a1.73,1.73,0,0,1,2.4.2c1.2,1.4,2.4,2.7,3.6,4.1a1.63,1.63,0,1,1-2.4,2.2c-1.2-1.3-2.4-2.7-3.7-4.1A1.82,1.82,0,0,1,175.49,125.34Zm9.8,10.8a1.73,1.73,0,0,1,2.4.2l3.7,4a1.63,1.63,0,0,1,0,2.4,1.73,1.73,0,0,1-2.4-.2l-3.7-4A1.63,1.63,0,0,1,185.29,136.14Zm9.9,10.7a1.73,1.73,0,0,1,2.4.2l3.7,4a1.63,1.63,0,0,1,0,2.4,1.73,1.73,0,0,1-2.4-.2c-1.3-1.3-2.5-2.7-3.7-4A1.63,1.63,0,0,1,195.19,146.84Zm10,10.6a1.72,1.72,0,0,1,2.4.1c1.3,1.3,2.5,2.6,3.8,3.9a1.63,1.63,0,0,1,0,2.4,1.72,1.72,0,0,1-2.4-.1c-1.3-1.3-2.5-2.6-3.8-3.9A1.63,1.63,0,0,1,205.19,157.44Zm47.4,47.6a1.73,1.73,0,0,1-2.4-.1c-1.3-1.3-2.6-2.6-3.9-3.8a1.64,1.64,0,0,1-.1-2.4,1.73,1.73,0,0,1,2.4.1c1.3,1.3,2.6,2.5,3.9,3.8A1.64,1.64,0,0,1,252.59,205Zm-37.3-37.1a1.72,1.72,0,0,1,2.4.1c1.3,1.3,2.5,2.6,3.8,3.9a1.63,1.63,0,1,1-2.3,2.3c-1.3-1.3-2.6-2.6-3.8-3.9A1.64,1.64,0,0,1,215.29,167.94Zm26.9,26.9a1.73,1.73,0,0,1-2.4-.1c-1.3-1.3-2.6-2.6-3.9-3.8a1.73,1.73,0,0,1-.1-2.4,1.64,1.64,0,0,1,2.4.1c1.3,1.3,2.6,2.5,3.9,3.8A1.73,1.73,0,0,1,242.19,194.84Zm-16.7-16.6a1.73,1.73,0,0,1,2.4.1l3.9,3.9a1.63,1.63,0,1,1-2.3,2.3l-3.9-3.9A1.72,1.72,0,0,1,225.49,178.24Z" fill="#7aabd3" fill-rule="evenodd"/><path d="M123.29,136.44a1.65,1.65,0,0,0,.3,2.4c1.4,1.2,2.8,2.4,4.1,3.6a1.72,1.72,0,0,0,2.4-.1,1.65,1.65,0,0,0-.3-2.4c-1.3-1.2-2.7-2.4-4.1-3.6A1.71,1.71,0,0,0,123.29,136.44Zm10.9,9.6a1.73,1.73,0,0,0,.2,2.4c1.4,1.2,2.7,2.4,4.1,3.6a1.67,1.67,0,1,0,2.2-2.5c-1.3-1.2-2.7-2.4-4.1-3.6A1.72,1.72,0,0,0,134.19,146Zm10.9,9.7a1.73,1.73,0,0,0,.2,2.4c1.4,1.2,2.7,2.4,4,3.7a1.82,1.82,0,0,0,2.4,0,1.73,1.73,0,0,0-.2-2.4c-1.3-1.2-2.7-2.4-4.1-3.7A1.52,1.52,0,0,0,145.09,155.74Zm10.8,9.8a1.73,1.73,0,0,0,.2,2.4l4,3.7a1.63,1.63,0,0,0,2.4,0,1.73,1.73,0,0,0-.2-2.4l-4-3.7A1.63,1.63,0,0,0,155.89,165.54Zm10.7,9.9a1.73,1.73,0,0,0,.2,2.4l4,3.7a1.63,1.63,0,0,0,2.4,0,1.73,1.73,0,0,0-.2-2.4c-1.3-1.3-2.7-2.5-4-3.7A1.63,1.63,0,0,0,166.59,175.44Zm10.6,10a1.72,1.72,0,0,0,.1,2.4c1.3,1.3,2.6,2.5,3.9,3.8a1.63,1.63,0,0,0,2.4,0,1.72,1.72,0,0,0-.1-2.4c-1.3-1.3-2.6-2.5-3.9-3.8A1.63,1.63,0,0,0,177.19,185.44Zm47.6,47.4a1.73,1.73,0,0,0-.1-2.4c-1.3-1.3-2.6-2.6-3.8-3.9a1.64,1.64,0,0,0-2.4-.1,1.72,1.72,0,0,0,0,2.4c1.3,1.3,2.5,2.6,3.8,3.9A1.75,1.75,0,0,0,224.79,232.84Zm-37.1-37.3a1.73,1.73,0,0,0,.1,2.4c1.3,1.3,2.6,2.5,3.9,3.8a1.63,1.63,0,1,0,2.3-2.3c-1.3-1.3-2.6-2.6-3.9-3.8A1.57,1.57,0,0,0,187.69,195.54Zm26.9,26.9a1.73,1.73,0,0,0-.1-2.4c-1.3-1.3-2.6-2.6-3.8-3.9a1.63,1.63,0,1,0-2.3,2.3c1.3,1.3,2.5,2.6,3.8,3.9A1.73,1.73,0,0,0,214.59,222.44Zm-16.5-16.7a1.73,1.73,0,0,0,.1,2.4l3.9,3.9a1.63,1.63,0,1,0,2.3-2.3l-3.9-3.9A1.64,1.64,0,0,0,198.09,205.74Z" fill="#7aabd3" fill-rule="evenodd"/><path d="M292.89,273a4,4,0,0,1,5.7,0l23.6,23.6a4,4,0,1,1-5.7,5.7l-23.6-23.6A4,4,0,0,1,292.89,273Zm3.6,2.2a1.06,1.06,0,0,0-1.5,1.5l23.6,23.6a1.06,1.06,0,0,0,1.5-1.5Z" fill="#7aabd3" fill-rule="evenodd"/><rect x="228.93" y="141.54" width="3" height="57.3" transform="translate(-54.17 202.81) rotate(-42.99)" fill="#fff"/></g></g></svg>