<?xml version="1.0" encoding="iso-8859-1"?>
<!-- Uploaded to: SVG Repo, www.svgrepo.com, Generator: SVG Repo Mixer Tools -->
<!DOCTYPE svg PUBLIC "-//W3C//DTD SVG 1.1//EN" "http://www.w3.org/Graphics/SVG/1.1/DTD/svg11.dtd">
<svg fill="#000000" height="800px" width="800px" version="1.1" id="Capa_1" xmlns="http://www.w3.org/2000/svg" xmlns:xlink="http://www.w3.org/1999/xlink" 
	 viewBox="0 0 312.553 312.553" xml:space="preserve">
<path d="M302.553,0H10C4.477,0,0,4.478,0,10v292.553c0,5.522,4.477,10,10,10h292.553c5.523,0,10-4.478,10-10V10
	C312.553,4.478,308.076,0,302.553,0z M129.542,191.958c-9.205,8.052-20.96,12.486-33.101,12.486
	c-27.288,0-49.488-21.749-49.488-48.481c0-26.67,22.201-48.367,49.488-48.367c12.157,0,23.873,4.395,32.989,12.375
	c3.874,3.392,4.266,9.282,0.874,13.157c-3.391,3.875-9.282,4.265-13.156,0.874c-5.716-5.004-13.07-7.76-20.707-7.76
	c-17.006,0-30.841,13.333-30.841,29.721c0,16.45,13.835,29.834,30.841,29.834c7.624,0,15.02-2.797,20.824-7.874
	c3.876-3.391,9.766-2.996,13.156,0.879C133.812,182.678,133.418,188.567,129.542,191.958z M187.166,204.957H149.91
	c-5.149,0-9.324-4.174-9.324-9.323v-76.107c0-5.149,4.174-9.323,9.324-9.323s9.324,4.174,9.324,9.323v66.784h27.932
	c5.149,0,9.324,4.174,9.324,9.323S192.315,204.957,187.166,204.957z M231.998,203.814c-11.99,0-24.229-5.061-31.942-13.207
	c-3.54-3.739-3.379-9.641,0.36-13.181c3.739-3.539,9.64-3.379,13.181,0.36c4.179,4.415,11.574,7.381,18.401,7.381
	c6.898,0,14.954-1.954,14.954-7.462c0.044-5.289-2.682-7.171-16.202-11.266c-12.171-3.686-30.564-9.256-30.564-30.575
	c0-15.949,13.774-26.664,34.274-26.664c9.088,0,19.002,2.758,25.87,7.198c4.324,2.796,5.563,8.567,2.768,12.892
	c-2.795,4.324-8.567,5.563-12.892,2.768c-3.836-2.479-10.311-4.212-15.746-4.212c-7.209,0-15.627,2.1-15.627,8.018
	c0,6.501,3.901,8.665,17.322,12.729c11.792,3.571,29.612,8.968,29.444,29.19C265.599,190.701,255.21,203.814,231.998,203.814z"/>
</svg>