<?xml version="1.0" encoding="utf-8"?>
<!-- Generator: Adobe Illustrator 26.1.0, SVG Export Plug-In . SVG Version: 6.00 Build 0)  -->
<svg version="1.1" id="Layer_1" xmlns="http://www.w3.org/2000/svg" xmlns:xlink="http://www.w3.org/1999/xlink" x="0px" y="0px"
	 viewBox="0 0 14 14" style="enable-background:new 0 0 14 14;" xml:space="preserve">
<g id="Icons">
	<path id="rect22128" d="M2.9,0C1.3,0,0,1.3,0,2.9c0,0,0,0,0,0v8.2C0,12.7,1.3,14,2.9,14c0,0,0,0,0,0h8.2c1.6,0,2.9-1.3,2.9-2.9
		c0,0,0,0,0,0V2.9C14,1.3,12.7,0,11.1,0c0,0,0,0,0,0H2.9z M2,3.9h4.5v1H3.2v1.4h1.9v1H3.2v1.5h3.3v1H2V3.9z M7.2,3.9h1.6l2,4v-4H12
		v6h-1.4L8.4,5.8l0,4.2H7.2V3.9z"/>
</g>
</svg>
