<?xml version="1.0" encoding="UTF-8"?><svg id="a" xmlns="http://www.w3.org/2000/svg" viewBox="0 0 512 512"><defs><style>.b{fill:#fff;stroke:#fff;stroke-linecap:round;stroke-linejoin:round;stroke-width:20px;}</style></defs><g><rect x="10" y="10" width="492" height="492" rx="90" ry="90"/><path d="M412,20c21.26,0,41.32,8.35,56.48,23.52,15.17,15.17,23.52,35.22,23.52,56.48V412c0,21.26-8.35,41.32-23.52,56.48-15.17,15.17-35.22,23.52-56.48,23.52H100c-21.26,0-41.32-8.35-56.48-23.52-15.17-15.17-23.52-35.22-23.52-56.48V100c0-21.26,8.35-41.32,23.52-56.48,15.17-15.17,35.22-23.52,56.48-23.52H412m0-20H100C45,0,0,45,0,100V412c0,55,45,100,100,100H412c55,0,100-45,100-100V100c0-55-45-100-100-100h0Z"/></g><g><path class="b" d="M418.41,189.49c-13.39-31.72-36.03-58.67-64.96-77.34-65.45-40.91-150.12-33.33-207.26,18.56-28.81,26.6-47.41,62.44-52.59,101.31h57.23c8.67-41.12,39.29-74.13,79.66-85.84,54.91-14.69,97.44,5.41,124.51,43.31h63.42Z"/><path class="b" d="M418.41,322.51c-36.8,86.46-136.72,126.71-223.18,89.91-34.46-14.67-63.11-40.29-81.52-72.9-10.9-18.4-17.75-38.91-20.11-60.17h57.23c12.79,61.3,72.84,100.62,134.14,87.84,27.97-5.83,52.7-22.01,69.26-45.3l64.19,.62Z"/></g></svg>