<svg xmlns="http://www.w3.org/2000/svg" width="99.632" height="128.712" viewBox="0 0 99.632 128.712">
  <g>
    <path d="M38.931,25.831c-5.722-.9-11.568,4.4-11.227,10.185,3.267-2.621,8.673-.342,10.2,3.56s0,8.424-2.571,11.73S29.254,57.04,26.1,59.794s-6.112,6.088-6.963,10.189c6.295-1.465,12.851,2.792,15.918,8.481s3.354,12.445,3.063,18.9c-.151,3.374-.176,7.356,2.537,9.368a8.936,8.936,0,0,0,4.822,1.365,40.614,40.614,0,0,0,15.937-2.181,12.589,12.589,0,0,0,5.5-3.254,5.4,5.4,0,0,0,.991-5.976c-.982-1.749-3.043-2.508-4.752-3.557A13.069,13.069,0,0,1,74.1,69.587,24.771,24.771,0,0,0,78.418,71a3.748,3.748,0,0,0,3.929-1.657,3.521,3.521,0,0,0-1.41-4.156,10.269,10.269,0,0,0-4.5-1.449,14.474,14.474,0,0,1-13.481,2.632c-2.73-.88-5.508-3.51-4.539-6.21.309-.861.964-1.568,1.246-2.439.913-2.823-2.256-5.116-3.719-7.7a7.194,7.194,0,0,1,11.284-8.694,25.925,25.925,0,0,0,3.879-6.506,8.752,8.752,0,0,0-.367-7.349c-1.7-2.824-5.211-3.922-8.459-4.474a51.4,51.4,0,0,0-31.958,4.972" fill="#7db8e8"/>
    <path d="M23.99,44.539c2.473.508,4.928-3.072,7.042-1.692,1.492.973.752,3.474-.757,4.42s-3.4.989-5.076,1.6c-3.25,1.184-5.307,4.318-7.132,7.258l-5.841,9.412c-1.47,2.368-3,4.987-2.644,7.751s3.682,5.176,5.971,3.587c.893-.62,1.473-1.719,2.515-2.027,1.217-.358,2.419.525,3.377,1.357,3,2.61,6,5.353,7.93,8.832s2.633,7.871.882,11.443C23.278,95.22,15.8,93.7,10.925,88.547c-3.124-3.3-4.78-7.744-5.694-12.2a46.915,46.915,0,0,1,5.374-32.267c1.641-2.886,6.058-11.274,10.2-10.789C26.6,33.971,18.036,43.314,23.99,44.539Z" fill="#d4e683"/>
    <path d="M47.91,25.215c-2.357.529-4.821,1.411-6.224,3.377s-1.091,5.262,1.128,6.215c1.744.749,3.725-.193,5.322-1.217a10.258,10.258,0,0,0,3.188-2.836,4.139,4.139,0,0,0,.425-4.077,2.641,2.641,0,0,0-3.633-1.112" fill="#d4e683"/>
    <path d="M73.069,45.284c1.071-2.2,2.82-4.78,5.235-4.373,2.443.413,3.247,3.73,2.365,6.045-1.858,4.876-9.139,6.531-12.922,2.936A29.858,29.858,0,0,0,64.9,46.957c-1.111-.8-2.818-1.05-3.749-.049-1.176,1.263-.184,3.423,1.275,4.346s3.265,1.19,4.7,2.154,2.3,3.211,1.024,4.372c-.868.788-2.282.659-3.194,1.394-1.716,1.382.145,4.484,2.348,4.462s3.926-1.869,5.154-3.7,2.371-3.9,4.359-4.85,5.041.141,4.992,2.343c-.033,1.487-1.433,2.909-.853,4.278.394.93,1.5,1.276,2.4,1.731a6.734,6.734,0,0,1-5.6,12.236c-1.585-.654-2.857-1.881-4.337-2.747s-3.43-1.333-4.861-.389c-1.234.814-1.675,2.386-2.024,3.822L63.692,88.015a8.249,8.249,0,0,1,7.205,13.9C83.149,95.805,90.882,82.2,91.18,68.508A46.015,46.015,0,0,0,84.37,44c-1.538-2.557-4.855-8.824-7.766-9.939C72.649,32.549,74.476,42.391,73.069,45.284Z" fill="#d4e683"/>
    <g>
      <path d="M24.917,101.188a15.407,15.407,0,0,0,3.282,2.08,22.975,22.975,0,0,0,2.967,1.041c2.479,1.322,4.7,2.361,7.755,2.244h0c.657.154,1.318.29,1.985.4a32.158,32.158,0,0,0,3.628.349,42.729,42.729,0,0,0,4.625.081c1.9-.013,3.807.029,5.709.085a16.145,16.145,0,0,0,3.868-.328c1.435-.321,2.808-.858,4.206-1.3a19.641,19.641,0,0,0,3.843-1.473h0a16.191,16.191,0,0,0,3.72-1.53h0a35.37,35.37,0,0,0,4-1.959,16.8,16.8,0,0,0,4.25-3.789,45.888,45.888,0,0,0,4.826-6.23,20.21,20.21,0,0,0,2.024-5.219c.708-2.574,1.593-5.1,2.172-7.708.518-2.585,1.071-5.164,1.519-7.761a24.3,24.3,0,0,0,.442-4.4,24.367,24.367,0,0,0-.853-5.179,25.612,25.612,0,0,0-.909-3.634,48.321,48.321,0,0,0-2.444-5.382c-.682-1.631-1.274-3.3-2.018-4.9a36.39,36.39,0,0,0-3.54-5.879,17.159,17.159,0,0,0-4.253-5.463c-.63-.671-1.16-1.436-1.8-2.1-1.421-1.534-2.849-3.279-4.4-4.71a25.715,25.715,0,0,0-3.659-2.793,2.033,2.033,0,0,0-.776-.615,6.576,6.576,0,0,0-2.021-1.006c-.816-.257-1.571-.683-2.409-.872-.4-.106-.8-.192-1.2-.274a18.69,18.69,0,0,0-3.279-.8A13.938,13.938,0,0,0,54.431,22c-1.534-.068-3.073-.084-4.607-.011-1.083.06-2.16.182-3.235.318h-.008c-.793.042-1.585.12-2.374.219-.478.024-.954.131-1.432.173a.408.408,0,0,0-.107.028h0c-.611.06-1.224.094-1.832.179a22.9,22.9,0,0,0-2.273.5,13.56,13.56,0,0,0-2.784,1.2h0c-.335.094-.667.2-1,.309a36.468,36.468,0,0,0-6.118,2.952A24.965,24.965,0,0,0,23,31.918c-1.333,1.321-2.5,2.8-3.787,4.159-1.96,2.1-4.247,3.927-5.834,6.355a42.966,42.966,0,0,0-3.128,5.508,32.347,32.347,0,0,0-2.611,6.634c-.3,1.171-.557,2.354-.782,3.542-2.8-1.8-4.77-3.96-4.892-6.46.21-1.546,1.973-1.983,3.285-2.082.6-.287.226-1.029-.287-1.172a3.682,3.682,0,0,0-3.392.576C-.239,50.135-.318,52.515.494,54.313a14.081,14.081,0,0,0,5.975,6.029l-.014.086v.01c-.24,1.143-.43,2.3-.633,3.446a8.676,8.676,0,0,1-3.954-3.109,2.206,2.206,0,0,0-.218-.473.571.571,0,0,0-.669-.176c-.509.226-.533.865-.386,1.329.636,1.913,2.652,3.311,4.867,4.375-.145.792-.271,1.588-.365,2.387a17.305,17.305,0,0,0-.021,2.6,30.11,30.11,0,0,0,1.109,5.844c.39,1.5.629,3.035,1.138,4.5a28.106,28.106,0,0,0,1.629,3.951A41.356,41.356,0,0,0,13,90.7c.757.981,1.471,2,2.242,2.965a16.165,16.165,0,0,0,2.674,2.547,57.2,57.2,0,0,0,6.013,4.461c.324.179.653.349.984.515Zm4.956-2.639-.04-.019c-.333-.21-.667-.415-1.007-.611a12.607,12.607,0,0,0-3.189-1.271,17.908,17.908,0,0,0-1.832-.373c-1.019-.336-2.045-.66-3.066-.984l-.089-.05c-.2-.108-.415-.315-.664-.235a.436.436,0,0,0-.048.029l-.061-.019a12.083,12.083,0,0,1-1.917-1.042h0l-.192-.206c-.6-.685-1.229-1.339-1.818-2.028-.64-.865-1.238-1.759-1.879-2.622a37.72,37.72,0,0,1-3.66-5.4q-.5-1.035-.914-2.1c-.5-1.279-1.032-2.551-1.436-3.867a33.73,33.73,0,0,1-1.07-5,22.616,22.616,0,0,1,.045-3.1c.059-1.019.093-2.042.135-3.064,1.256.507,2.48.924,3.464,1.28l.074.023a9.286,9.286,0,0,0-.449,7.033A3.172,3.172,0,0,0,15.4,76.361c1.765-1.474,3.735-4.363,6.356-3.026a1.642,1.642,0,0,1,.17.128,4.866,4.866,0,0,0,.324.364l.067.068c.421.575.711,1.294,1.4,1.6a10.174,10.174,0,0,0,3.045.673,24.737,24.737,0,0,1,3.832.937,1.609,1.609,0,0,1,.186.129,6.348,6.348,0,0,1,.7.734l.046.06a4.793,4.793,0,0,1,.3.421,14.12,14.12,0,0,1,1.4,3.493,12.7,12.7,0,0,1,.222,1.331,30.734,30.734,0,0,1,.256,4.764c-.522,2.1-1.086,4.2-.2,6.246a10.444,10.444,0,0,0,.461.981c.271.7.577,1.42.885,2.09a14.3,14.3,0,0,1,.992,2.542,1.855,1.855,0,0,1,.063.725,1.036,1.036,0,0,1-.287.49c-.32.346-.7.18-1.064.049a16.734,16.734,0,0,1-3.326-1.735A10.818,10.818,0,0,0,29.873,98.549Zm-17.462-35.4q1.332.474,2.683.873a4.455,4.455,0,0,0-1.3.359,7.933,7.933,0,0,0-2.132,1.94l-.373-.142c-1.347-.523-2.693-1.052-4.017-1.63a29.984,29.984,0,0,1,.418-3.534C9.247,61.831,10.869,62.516,12.411,63.153Zm-1.4,7.569a7.041,7.041,0,0,1,.418-2.01C11.27,69.377,11.129,70.047,11.014,70.722Zm2.7-24.477c.275-.449.586-.873.9-1.295.926-1.275,1.98-2.449,2.939-3.7.344-.44.661-.9.987-1.353s.7-.857,1.052-1.289c1.033-1.027,2.187-1.916,3.277-2.878.692-.6,1.348-1.249,2.033-1.86l.014-.008a.466.466,0,0,1,.387.089l.011.016a.2.2,0,0,0-.164-.066c-.155.1.064.488.23.469.048.061.109.023.065-.047a.191.191,0,0,0,.006-.06l.036.116a7.938,7.938,0,0,1,.157,1.072c-.447,1.284-1.492,2.551-.925,3.936a4.365,4.365,0,0,0,5.991,1.974,10.076,10.076,0,0,0,2.209-2.384c.046-.065.089-.137.132-.212a2.287,2.287,0,0,1,1.439-.661,2.32,2.32,0,0,1,.57,1.117,14.827,14.827,0,0,1-.447,3.247c-.016.068-.034.135-.05.2-.017.029-.034.058-.051.085-1.009,1.717-1.775,3.56-2.765,5.285-1.07,1.517-2.058,3.088-3.04,4.662-.169.275-.349.546-.54.806q-.216.278-.436.551a9.267,9.267,0,0,1-2.779,1.366,4.024,4.024,0,0,1-1.159.04c-.085-.028-.169-.059-.251-.095-.386-.191-.8-.517-1.252-.333a.913.913,0,0,0-.2.149l-.138-.023c-2.01-.566-.291,4.456-2.836,7.238a2.6,2.6,0,0,1-.477.642A50.9,50.9,0,0,1,8.207,58.927c.173-.593.359-1.183.544-1.773.043-.137.087-.274.129-.412.271-.649.553-1.293.83-1.939.516-1.157.947-2.347,1.36-3.543.439-1.088.9-2.172,1.425-3.219l.007-.014C12.9,47.426,13.311,46.842,13.71,46.245ZM85.775,78.311a33.055,33.055,0,0,1-2.194,6.107c-.719,1.588-1.36,3.21-1.99,4.836a10.127,10.127,0,0,1-1.639,2.979A26.4,26.4,0,0,1,75.2,96.449c-1,.745-1.95,1.559-2.88,2.391-.375.325-.763.634-1.16.932.173-1.05.368-2.1.461-3.155a13.755,13.755,0,0,0-.244-3.308,5.5,5.5,0,0,0-3.446-4.352c-1.531-.558-3.145-.038-4.687.209.117-.821.353-1.62.493-2.436a21.342,21.342,0,0,0,.292-3.376,28.356,28.356,0,0,1,.047-3.194,14.153,14.153,0,0,1,3.088-7.125,5.373,5.373,0,0,1,1.62-1.476,4.114,4.114,0,0,1,1.68-.513,3.529,3.529,0,0,1,1.56.188,6.958,6.958,0,0,1,1.542,1.093,4.528,4.528,0,0,0,.389.418,3.443,3.443,0,0,0,.845.66c.105.084.212.166.321.244a5.189,5.189,0,0,0,1.553.833c.64.2,1.291.325,1.943.488a10.9,10.9,0,0,1,1.409.448c.58.309,1.162.617,1.759.894.939.451,1.728.712,2.461-.233.294-.307.586-.621.908-.906.23-.158.458-.33.688-.512.294-.172.606-.311.911-.465a.56.56,0,0,0,.085.032h0C86.47,75.586,86.064,76.933,85.775,78.311ZM63.237,81.934c.013-.256.022-.513.024-.77.009-.291.029-.582.06-.871C63.3,80.84,63.286,81.387,63.237,81.934ZM85.051,52.52a22.563,22.563,0,0,1,1.933,4.806,15.072,15.072,0,0,1,.471,2.423c-.057,3.087.351,6.161.243,9.247,0,.076-.008.152-.013.228a10.423,10.423,0,0,0-2.414-3.585l-.178-.206a5.4,5.4,0,0,0-1.422-1.3c-.169-.2-.141-.5-.217-.743a2.4,2.4,0,0,0-.609-1.176c-.192-.17-.616-.531-.837-.242a1.372,1.372,0,0,0-.491.481c-.218.158-.424.336-.644.491.057-.263.131-.51.2-.783a11.107,11.107,0,0,0,.405-5.268c-.234-1.029-.955-2.35-2.172-2.453a4.559,4.559,0,0,0-3.085.983,2.66,2.66,0,0,0-.775.577,13.038,13.038,0,0,0-.808,1.244,7.225,7.225,0,0,0-.489.7,10.948,10.948,0,0,0-.938,1.91c-.069.119-.139.237-.211.355-.181.2-.359.4-.52.611-.757.912-1.193,2.023-1.864,2.991a3.16,3.16,0,0,1-1.653,1.355c-.252.042-.508.067-.76.107-.243-.024-.485-.058-.724-.087a8.256,8.256,0,0,1-4.314-1.8,2.167,2.167,0,0,1-.542-1.3,1.669,1.669,0,0,1,.824-1.329,4.433,4.433,0,0,1,1.721.014,4.28,4.28,0,0,0,1.3-.09,2.282,2.282,0,0,0,1.174-.17,4.047,4.047,0,0,0,1.264-1.091,4.344,4.344,0,0,0,.961-1.744,4.479,4.479,0,0,0,.165-.56,2.755,2.755,0,0,0-.64-2.251,3.264,3.264,0,0,0-1.17-.853,1.065,1.065,0,0,0-.32-.145c-.1-.042-.2-.083-.3-.123a13.865,13.865,0,0,0-1.643-.63L65.76,53a3.812,3.812,0,0,0-1.964-.8c-1.035.111-1.479,1.176-2.24,1.729a3.5,3.5,0,0,0-.451-2.875c-.043-.07-.087-.14-.131-.209-.029-.1-.06-.209-.094-.312a10.859,10.859,0,0,0-.791-1.81,1.6,1.6,0,0,1-.286-.96,1.112,1.112,0,0,1,1.048-.791c.488.114,1,.4,1.363.192a1.387,1.387,0,0,0,.818.247c.785-.114.422-1.068.337-1.585a3.019,3.019,0,0,1,.379-2.31,4.633,4.633,0,0,0,.5,1.1,4.356,4.356,0,0,0,1.39,3.456,3.97,3.97,0,0,0,.838,1.279,5.193,5.193,0,0,0,.753.62,8.8,8.8,0,0,1,.886,1.342,4.881,4.881,0,0,0,1.637,2.257,2.685,2.685,0,0,0,1.9.332,6.228,6.228,0,0,0,5.124-1.78l.044-.049a5.765,5.765,0,0,0,1.49-1.544,21.111,21.111,0,0,1,1.641-2.511,5.494,5.494,0,0,0,.569-.706,6.326,6.326,0,0,0,.557-1.528c.066-.157.125-.316.175-.476l.017.032c.719,1.445,1.346,2.937,2.111,4.359C83.91,50.662,84.5,51.582,85.051,52.52ZM76.08,37.087a19.619,19.619,0,0,1,2.286,3.042q-.024.014-.048.024c-.276.138-.553.276-.817.435a4.269,4.269,0,0,0-.456.287,3.677,3.677,0,0,0-.836.575,3.227,3.227,0,0,0-.877,1.732l-.044.117c-.165.047-.175.235-.182.382-.006.061-.015.122-.022.184-.674,1.87-1.281,3.389-3.82,2.393-2.645-1.489.357-4.384,1.143-6.148a7.7,7.7,0,0,0,.746-2.757,8.6,8.6,0,0,0-.024-1.076c.055-.262.1-.526.139-.791.1-.1.083-.347.058-.545a1.169,1.169,0,0,0,0-.171c.059.021.139.055.1-.033-.01-.019-.037-.049-.062-.037l-.04,0v-.066A21.26,21.26,0,0,1,76.08,37.087Zm-8.153-8.64c.065.08.132.16.2.238-.27-.249-.544-.495-.823-.734C67.515,28.112,67.724,28.276,67.927,28.447Zm-7.174-2.568c1.673.755,3.411,1.376,5.018,2.269a27.744,27.744,0,0,1,5.134,4.419c.331.306.665.61,1,.908.021.067.041.135.06.2a6.994,6.994,0,0,1-.115,3.045,11.328,11.328,0,0,1-.9,2.585l-.024.051c-.467.717-.94,1.43-1.349,2.18a4.155,4.155,0,0,0-.742,2.6,4.008,4.008,0,0,0,.854,2.377,4.373,4.373,0,0,0,1.408,1.3,3.174,3.174,0,0,0,1.784.62,2.192,2.192,0,0,0,1.608-.471,3.559,3.559,0,0,0,.629-.749.6.6,0,0,0,.128-.263,7.253,7.253,0,0,0,.751-2.3,2.715,2.715,0,0,0,.04-.576c.052-.125.107-.248.166-.369a4.615,4.615,0,0,1,2.021-1.957c.282-.135.565-.268.844-.407.626,1.091,1.254,2.183,1.841,3.3a.493.493,0,0,0-.377.3c-.352.564-.651,1.157-.959,1.747-.111.209-.224.416-.343.621a4.725,4.725,0,0,0-.632.633,5.355,5.355,0,0,0-.7,1.137A10.849,10.849,0,0,1,74.877,51.3l-.284.138c-.09.033-.179.068-.266.106-.213.1-.424.2-.633.3a4.5,4.5,0,0,1-3.22.386,2.559,2.559,0,0,1-1.036-.794,17.385,17.385,0,0,0-.9-1.789,4.24,4.24,0,0,0-.654-.767c-.252-.234-.53-.437-.777-.675a3.825,3.825,0,0,1-.506-1.367,3.984,3.984,0,0,0-1.39-2.4,2.7,2.7,0,0,0-.048-.44,2.578,2.578,0,0,0-.361-.981,1.261,1.261,0,0,0-1.013-.592c-.167-.107-.365-.191-.5-.049a2.415,2.415,0,0,0-1.5,2.1c-.041.3-.062.6-.121.891-.007.032-.016.064-.026.1-.317-.176-.657-.286-.8.015l-.2.04a1.715,1.715,0,0,0-.9-.152,1.638,1.638,0,0,0-1.235.879,1.657,1.657,0,0,0-.144.135c-.715.988,0,2.255.6,3.123a11.8,11.8,0,0,0,.925,1.12c.122.334.228.675.322,1.018a20.54,20.54,0,0,0,.561,2.46,1.864,1.864,0,0,0,.109.2l.006.024a1.236,1.236,0,0,0,1.226.885,1.445,1.445,0,0,0,.2-.04c.018,0,.036,0,.054,0,.694.022,1.21-.528,1.875-.63a4.335,4.335,0,0,1,2.18.272c.722.316,1.423.682,2.134,1.023a3.412,3.412,0,0,1-.963,2.307,3.927,3.927,0,0,1-2.7.911c-.425-.03-.845-.1-1.266-.161-.084-.012-.169-.022-.255-.031a1.631,1.631,0,0,0-.316-.074,2.357,2.357,0,0,0-1.83.957,2.772,2.772,0,0,0-.055,3.736,7.34,7.34,0,0,0,1.879,1.755,7.393,7.393,0,0,0,4.1,1.741,5.06,5.06,0,0,0,2.175-.247c.134.024.267.046.4.066A2.734,2.734,0,0,0,72,66.043a9.079,9.079,0,0,0,1.94-2.9c.714-1.418,1.417-2.843,2.225-4.211a6.6,6.6,0,0,1,1.272-1.724.273.273,0,0,0,.2-.064,1.681,1.681,0,0,1,1.333.043,9.865,9.865,0,0,1,.545,3.094l0,.035-.048.143a4.307,4.307,0,0,0-.206.537,5.081,5.081,0,0,0-.2.885,8.044,8.044,0,0,0-.186,1.327,5.679,5.679,0,0,0-.1.863,1.982,1.982,0,0,0,1.4,1.757,3.1,3.1,0,0,0,2.109-.458c.143-.07.283-.145.422-.223a4.082,4.082,0,0,0,.341.378c.557.523,1.194.947,1.712,1.513a10.011,10.011,0,0,1,1.58,1.632c.866,1.762.056,2.743-.287,4.484a17.083,17.083,0,0,0-1.374,1.234c-.131.124-.259.252-.388.379a9.08,9.08,0,0,1-2.458.342c-.023,0-.045,0-.067,0-.413-.233-.822-.474-1.249-.68-.46-.219-.915-.447-1.373-.671a9.434,9.434,0,0,0-1.485-.578,10.865,10.865,0,0,1-3.079-1.033c-.451-.326-.782-.786-1.228-1.118a7.925,7.925,0,0,0-5.637-1.347c-1.532.35-2.37,1.8-3.028,3.1-.255.443-.459.91-.69,1.365-.107.226-.328.578-.428.84a15.543,15.543,0,0,0-.594,2.5,51.028,51.028,0,0,1-1.218,5.85c-.263.75-.6,1.47-.826,2.233a10.507,10.507,0,0,0-.316,1.571,3.234,3.234,0,0,0,1.45,3.439,2.191,2.191,0,0,0,.319.135,1.34,1.34,0,0,0,.9.355,8.9,8.9,0,0,0,1.78-.438c.435-.118.874-.243,1.319-.323a3.378,3.378,0,0,1,2.235.9c1.355,1.433,1.033,4.328,1.021,6.174a11.453,11.453,0,0,0,.052,3.339c.009.03.018.06.028.09h0l-.4.273a31.085,31.085,0,0,1-3.328,2.057c-.259.135-.524.257-.792.369-1.44.269-2.939.133-4.391.349-1.518.159-2.978.636-4.474.917a30.321,30.321,0,0,1-3.344.413c-1.14.075-2.282.025-3.422-.01s-2.275-.08-3.413-.115c-1.226-.019-2.452,0-3.677-.062a31.545,31.545,0,0,1-3.772-.371c-.434-.094-.868-.188-1.3-.277-2.039-.477-4.136-.722-6.137-1.349a46.816,46.816,0,0,1-4.348-2.033,50.73,50.73,0,0,1-5.52-3.9c-.176-.134-.351-.267-.526-.4.119.058.24.112.356.168a6.77,6.77,0,0,0,2.219.463l.056.019c2.243.962,4.227,2.444,6.588,3.15a9.7,9.7,0,0,1,1.348.685,10.966,10.966,0,0,0,2.784,1.772c.132.055.268.1.406.146.06.027.119.055.18.081,6.035,1.108.5-7.251.021-9.792a16.585,16.585,0,0,1-.024-2.8c.05-.288.105-.574.163-.858a12.937,12.937,0,0,0,.124-1.856c.352-2.943.566-5.686-1.821-8.812C32.271,77.15,31.45,76,29.923,75.444c-.131-.107-.267-.209-.407-.3a9.161,9.161,0,0,0-3.646-1.152,5.864,5.864,0,0,1-3.057-1.137,6.534,6.534,0,0,0-2.255-1.9,4.342,4.342,0,0,0-3.314.774,18.289,18.289,0,0,0-2.2,1.516c-.793.582-2.189,2.023-3.225,1.645a5.061,5.061,0,0,1-.212-1.953,9.064,9.064,0,0,1,1.332-4.354c6.677,2.069,13.381,4.066,20.155,5.792-6.357-2.31-12.694-4.726-19.025-7.132,1.2-1.018,2.426-1.091,3.894-1.593A9.3,9.3,0,0,0,19.3,65.11c7.108,1.582,14.474,2.079,21.677,3.029,2.132.218,4.283.422,6.417.509-7.443-1.033-14.8-2.563-22.166-4.038-1.125-.2-2.611-.519-4.289-.944a10.533,10.533,0,0,0,.945-2.125c.468-1.4.934-2.81,1.273-4.252.036-.126.062-.237.095-.35.182.019.4.051.667.093a3.2,3.2,0,0,0,1.59-.256,5.247,5.247,0,0,0,1.167-.382,5.623,5.623,0,0,0,1.743-1.405c.591-.672,1.248-1.281,1.835-1.955.885-.991,1.712-2.031,2.545-3.065a13.757,13.757,0,0,0,1.953-2.81A10.968,10.968,0,0,0,35.791,43.9c.061-.161.122-.322.18-.484a5.811,5.811,0,0,0-.1-3.875,4.546,4.546,0,0,0-.341-1.326,2.314,2.314,0,0,0-2.106-1.484,2.084,2.084,0,0,0-.328-.038,1.333,1.333,0,0,0-.524.2c-1.317.464-2.222,1.645-3.442,2.29a3.267,3.267,0,0,1-1.789.415,2.082,2.082,0,0,1-.647-.449c-.038-.033-.033-.085-.042-.131a12.47,12.47,0,0,1,.024-1.813,6.408,6.408,0,0,0-.341-2.97,3.422,3.422,0,0,0-.651-1.026c.081-.064.16-.13.243-.193,1.1-.764,2.228-1.492,3.325-2.263,1.7-1.187,3.293-2.6,5.292-3.264,1.7-.627,3.364-1.341,5.022-2.07,2.125-.489,4.267-.793,6.407-1.262a10.75,10.75,0,0,1,3.007-.2q1.523.031,3.045.1a19.328,19.328,0,0,1,3.18.394c.862.168,1.741.238,2.593.455A24.306,24.306,0,0,1,60.753,25.879Z"/>
      <path d="M49.975,27.576c-.942-.657-1.614-1.67-2.648-2.194-.237-.083-.768-.36-.986-.2a.267.267,0,0,0-.329-.152,2.269,2.269,0,0,0-2.027.29c-.827.405-1.624.868-2.406,1.353-.719.439-1.462.845-2.164,1.308a3.16,3.16,0,0,0-1.17,2.1,6.24,6.24,0,0,0,1.407,4.072,15.568,15.568,0,0,0,1.522,2.236,7.344,7.344,0,0,0,.45.821,2.171,2.171,0,0,0,2,1.171,1.7,1.7,0,0,0,.369.042c1.154.006,2.217-1.173,2.933-1.985.5-.664,1.058-1.277,1.593-1.909.148-.16.3-.318.451-.475.27-.109.538-.222.8-.351a4.3,4.3,0,0,0,1.963-1.638,2.307,2.307,0,0,0,.249-2.611A6.352,6.352,0,0,0,49.975,27.576ZM40.464,33.49c-.089-.169-.179-.338-.27-.5a3.612,3.612,0,0,1-.076-3.631c.024-.033.048-.069.073-.106.264-.219.534-.431.8-.642.466-.357.927-.722,1.419-1.043.526-.344,1.1-.609,1.646-.912a5.277,5.277,0,0,0,.542-.324c.168-.061.337-.119.509-.171A2.114,2.114,0,0,1,46.17,26a4.861,4.861,0,0,1,.785.883,14.623,14.623,0,0,0,1.852,1.7c.454.346.941.619,1.438.97.24.174.537.368.422.707a2.408,2.408,0,0,1-.605.895,9.564,9.564,0,0,1-1.549,1.127c-.546.38-1.077.785-1.6,1.2-.971.75-1.808,1.654-2.739,2.451-.394.293-.769.741-1.29.76A5.352,5.352,0,0,1,41.38,35.1Q40.945,34.283,40.464,33.49Z"/>
      <path d="M99.582,67.911c-.058-1.21-.026-2.426-.124-3.634-.079-.792-.152-1.585-.191-2.381a33.047,33.047,0,0,0-.436-4.531c-.143-.75-.305-1.5-.473-2.24-.282-1.245-.54-2.5-.834-3.739a17.971,17.971,0,0,0-1.7-4.166c-.681-1.314-1.42-2.6-2.092-3.915a29.4,29.4,0,0,0-2.5-4.075c-.955-1.281-1.842-2.612-2.845-3.856-1.592-1.87-3.2-3.727-4.743-5.638a44.545,44.545,0,0,0-5.237-5.5c-1.643-1.338-3.327-2.625-4.976-3.954a23,23,0,0,0-2.812-2.048,21.023,21.023,0,0,0-3.954-1.8,14.758,14.758,0,0,0-3.787-.934c-1.526-.185-3.063-.267-4.592-.414-.971-.1-1.938-.231-2.908-.32-.487-.034-.965-.065-1.446-.091.12-1.594.548-3.808-1.186-4.64a2.944,2.944,0,0,0-.627-.14c.008-.163.015-.32.021-.507.041-1.147.1-2.316.213-3.462A35.369,35.369,0,0,0,52.649.947c-.047-.3-.054-.673-.3-.88A.258.258,0,0,0,52.183,0a.288.288,0,0,0-.153.07,2.587,2.587,0,0,0-.347.823c-.111.337-.216.675-.3,1.02a25.374,25.374,0,0,0-.769,5.426,15.358,15.358,0,0,0-.232,1.9c-.011.277.037.555.016.83-.136.04-.268.086-.394.136a1.029,1.029,0,0,0-.481.427,7.311,7.311,0,0,0-.662,1.736,13.787,13.787,0,0,0-.279,1.576c-.034.205-.069.41-.11.614a1.1,1.1,0,0,0-.067.495,2.1,2.1,0,0,0-.823.6,5.087,5.087,0,0,0-.905,1.593.591.591,0,0,0,.051.428,1.108,1.108,0,0,0,.315.415c.143.115.436.247.53,0l.082-.205a.346.346,0,0,0,.085,0l.005,0c.054.029.09.014.109-.019a5.491,5.491,0,0,1,1.223.143c.266.036.531.062.8.073.687.03,1.376-.016,2.063,0,.573.033,1.142.1,1.713.162,1.105.131,2.217.2,3.319.348a11.369,11.369,0,0,1,2.688.675,33.394,33.394,0,0,1,3.034,1.575c1.833,1.074,3.674,2.132,5.546,3.134.976.533,1.968,1.038,2.907,1.635a59.646,59.646,0,0,1,6.786,5.666c.826.743,1.663,1.476,2.42,2.29.923,1.009,1.755,2.094,2.622,3.15a54.907,54.907,0,0,1,4.211,5.464,40.383,40.383,0,0,1,2.853,6.066A48.367,48.367,0,0,1,92.246,53.8a29.539,29.539,0,0,1,1.072,5.146c.318,3.23.521,6.479.519,9.725a27.141,27.141,0,0,1-.645,4.571,56.883,56.883,0,0,1-1.618,7.107,79.9,79.9,0,0,1-3.3,8.072c-1.06,1.861-2.422,3.532-3.441,5.419-.536.961-1.041,1.937-1.606,2.881-.506.81-1.052,1.6-1.62,2.364a22.64,22.64,0,0,1-6.869,6.1c-.99.5-1.975,1-2.918,1.579-1.012.6-1.961,1.3-2.964,1.919-.434.266-.876.516-1.324.754-1.324.519-2.673.972-3.981,1.534a48.269,48.269,0,0,0-6.675,1.1,3.014,3.014,0,0,1-.334.094q-.655.009-1.312.023c-1.4.027-2.794.089-4.188.173a8.856,8.856,0,0,1-1.281-.06c-1.115-.109-2.239-.076-3.353-.192-1.631-.167-3.243-.473-4.878-.611-.45-.043-.9-.081-1.354-.106a18.79,18.79,0,0,0-3.243-1.09,30.982,30.982,0,0,0-4.053-.8c-.171-.058-.34-.118-.509-.182-.054-.069-.135-.115-.176-.068-.188-.075-.375-.154-.559-.24-.3-.134-.6-.3-.905-.424-.183-.119-.473-.2-.523.091-.01.745.975,1.163,1.5,1.551a16.974,16.974,0,0,0,2.06,1.1,19.772,19.772,0,0,0,2.008,1.349,34.325,34.325,0,0,0,4.246,2.506c.017.18.033.36.049.54.054.62.073,1.241.11,1.861.011.187.02.374.026.562-.1-.016-.2-.028-.3-.035a1.341,1.341,0,0,0,.163-.025c.086-.028.112-.134.113-.213s-.084-.185-.157-.136a.851.851,0,0,0-.332.053,11.827,11.827,0,0,0-1.673.076c-.411.077-.818.179-1.23.252a14.657,14.657,0,0,0-2.877.386,28.56,28.56,0,0,0-2.777,1c-.9.363-1.812.709-2.715,1.072a18,18,0,0,0-2.43,1.185c-.508.3-1.122.543-1.372,1.121a1.734,1.734,0,0,0-.031,1.261,2.545,2.545,0,0,0,.984,1.585,5.413,5.413,0,0,0,2.3,1.056,15.374,15.374,0,0,0,2.137.339c.332.078.663.159.989.25a37.811,37.811,0,0,0,6.852,1.243,43.171,43.171,0,0,0,4.522.043c2.923-.081,5.858.019,8.767-.336,1.943-.233,3.851-.674,5.783-.981,2.209-.247,1.342-2.143.185-3.126a9.718,9.718,0,0,0-2.884-1.686c-1.733-.693-3.488-1.332-5.183-2.119-.63-.29-1.254-.6-1.871-.917-.41-.218-.69.072-.592.493a1.375,1.375,0,0,0,.065.216,1.113,1.113,0,0,0,.166.693,4.337,4.337,0,0,0,1.392,1.2,32.329,32.329,0,0,0,4.851,2.349,24.656,24.656,0,0,1,2.531,1.11,34.509,34.509,0,0,1-4.041-.073c-2.078-.106-4.157-.052-6.234.033a24.085,24.085,0,0,1-3.873-.114c-1.765-.166-3.53-.334-5.3-.4-1.732-.106-3.464-.031-5.195.034-.666.01-1.318.011-1.986-.018a5.3,5.3,0,0,1-1.757-.315,18.391,18.391,0,0,1,1.986-.815c1.194-.417,2.354-.925,3.547-1.342.2-.073.4-.142.6-.212a1.81,1.81,0,0,0,.456.615,1.336,1.336,0,0,0,1.057.936,10.134,10.134,0,0,0,1.517-.192c.616-.087,1.235-.167,1.846-.285.711-.117,1.48-.25,2.2-.316a10.936,10.936,0,0,1,2.747.067c.576.083.4-.664.167-.936a1.17,1.17,0,0,0-.424-.382,3.593,3.593,0,0,0-.424-.118,14.646,14.646,0,0,0-2.573-.564l-.008-.033a.8.8,0,0,0-.042-.169c.514-.185,1.025-.375,1.539-.558a.19.19,0,0,0,.142-.1c.035-.008.069-.015.1-.025a.268.268,0,0,0,.162-.148.5.5,0,0,0,.241-.52c0-.317,0-.634.009-.95-.024-.933-.045-1.88-.138-2.817.3.095.605.191.9.3q.532.164,1.068.319c.007.7-.006,1.4.015,2.1.015,1.109.046,2.219.052,3.328a1.516,1.516,0,0,0,.786,1.166c.326.177.628.019.6-.36a40.007,40.007,0,0,0-.278-4.744c-.052-.409-.124-.816-.21-1.22a40.061,40.061,0,0,0,8.336,1.411,11.423,11.423,0,0,0,5.1-.853,17.35,17.35,0,0,0,2.5-.781c1.092-.455,2.148-.994,3.257-1.41.642-.267,1.308-.47,1.972-.675.959-.318,1.915-.649,2.849-1.037a21.641,21.641,0,0,0,3.839-2.26c1.541-.99,3.17-1.84,4.645-2.933,1.013-.706,1.873-1.6,2.85-2.355.551-.434,1.122-.843,1.644-1.311a25.607,25.607,0,0,0,3.595-4.446c.387-.541.791-1.073,1.15-1.634.868-1.333,1.432-2.857,2.317-4.189.555-.846,1.284-1.554,1.887-2.361A19.662,19.662,0,0,0,91.9,90.16c.439-.809.869-1.6,1.292-2.428.405-.846.682-1.746,1.037-2.613.349-.892.84-1.716,1.271-2.568a30.924,30.924,0,0,0,1.126-3.03c.261-.679.51-1.362.763-2.044a33.782,33.782,0,0,0,2.144-6.626A14.162,14.162,0,0,0,99.582,67.911ZM51.609,9.088c0,.26,0,.52-.008.779a4.677,4.677,0,0,0-.907.12,7.929,7.929,0,0,0,.2-.831c.074-.505.115-1.015.2-1.518.209-.868.414-1.735.541-2.621Q51.631,7.054,51.609,9.088Zm-25.25,115.5-.143-.074.04-.042.047-.044A1.319,1.319,0,0,0,26.359,124.585Zm18.233-11.356.072,0-.093,0-.462-.075c.443.038.886.063,1.328.109C45.155,113.251,44.873,113.242,44.592,113.229Z"/>
      <path d="M56.217,30.05a3,3,0,0,0-2.2,2.028A2.03,2.03,0,0,0,55.1,34.559a3.684,3.684,0,0,0,.873.328,4.052,4.052,0,0,0,.911.342A2.755,2.755,0,0,0,59.3,34.022a2.386,2.386,0,0,0,.754-1.6,2.108,2.108,0,0,0-.527-1.208,2.271,2.271,0,0,0-1.247-1.158L58.114,30a.479.479,0,0,0-.287-.011A3.606,3.606,0,0,0,56.217,30.05Zm2.292,1.6a2.352,2.352,0,0,1-1.977,1.94,3.8,3.8,0,0,1-1.52-.362,3.688,3.688,0,0,1,.726-1.732,2.007,2.007,0,0,1,1.9-.862A1.548,1.548,0,0,0,58.509,31.653Z"/>
      <path d="M35.859,20.233c.6-.122,1.21-.225,1.821-.3.272-.033.546-.057.818-.092.213-.036.471-.032.618-.217a.374.374,0,0,0-.05-.5,3.774,3.774,0,0,0-2.111-.337,16.627,16.627,0,0,0-4.945,1.08A14.383,14.383,0,0,0,25.6,23.922c1.368-.435,2.744-.954,4.083-1.527A27.1,27.1,0,0,1,35.859,20.233Z"/>
      <path d="M35.113,16.635a1.768,1.768,0,0,0,1.221,0c.608-.123,1.222-.221,1.839-.283.373,0,.762-.249.555-.658-.284-.408-.948-.306-1.386-.311a10.793,10.793,0,0,0-1.163.126,1.7,1.7,0,0,0-1.2.526.625.625,0,0,0-.164.361A.656.656,0,0,0,35.113,16.635Z"/>
    </g>
  </g>
</svg>
