<?xml version="1.0" encoding="utf-8"?>
<!-- Generator: Adobe Illustrator 26.1.0, SVG Export Plug-In . SVG Version: 6.00 Build 0)  -->
<svg version="1.1" id="Layer_1" xmlns="http://www.w3.org/2000/svg" xmlns:xlink="http://www.w3.org/1999/xlink" x="0px" y="0px"
	 viewBox="0 0 489 514" style="enable-background:new 0 0 489 514;" xml:space="preserve">
<style type="text/css">
	.st0{fill:#020000;}
	.st1{fill:#FFFFFF;}
</style>
<path class="st0" d="M224,2c0.6,2.1,0.6,2.1,1,4c1.7-0.3,1.7-0.3,3.5-0.7c35.6-6,84.9-8.3,115.8,13.3c2.3,1.7,4.5,3.5,6.7,5.4
	c0.8,0.6,1.6,1.3,2.4,1.9C370.1,40.1,380.8,59.4,390,79c0.4,0.7,0.7,1.5,1.1,2.3c10.5,22.8,17.6,46.7,24.1,70.9
	c0.4,1.4,0.4,1.4,0.7,2.8c0.7,2.6,1.4,5.2,2.1,7.8c0.2,0.8,0.4,1.6,0.6,2.4c0.9,3.5,1.4,6.3,1.4,9.9c-8.9,2.3-17.8,4.6-27,7
	c0,0.3,0,0.7,0,1c1.8,0.1,1.8,0.1,3.7,0.3c29.7,2.6,57,9.5,77.2,33.1c14.6,18.7,17.1,42.4,14.6,65.4c-3.1,22.6-13.5,43-31.6,57.3
	c-17.1,13-37.2,19.5-58,23.8c7.7,14.4,15.4,28.7,23.2,43.1c4,7.3,8,14.7,11.9,22.1c4.3,8,8.6,15.9,12.9,23.9
	c4.9,9,9.8,18.1,14.7,27.1c3,5.6,6,11.2,9.1,16.8c0.6,1.1,1.2,2.2,1.8,3.4c1.2,2.1,2.3,4.3,3.5,6.4c0.5,0.9,1,1.9,1.6,2.9
	c0.5,0.8,0.9,1.7,1.4,2.5c1,1.9,1,1.9,1,2.9c-26.7,0-53.5,0-81,0c-4-9.6-7.9-19.1-12-29c-12.2-29.1-25.8-57.6-39.7-85.9
	c-0.4-0.8-0.8-1.7-1.2-2.5c-4.5-9.3-9.1-18.6-13.7-27.9c-2.1-4.2-4.1-8.3-6.2-12.5c-1-2-2-4-3-6.1c-1.4-2.8-2.8-5.6-4.2-8.4
	c-0.4-0.8-0.8-1.7-1.3-2.5c-0.4-0.8-0.8-1.5-1.1-2.3c-0.3-0.7-0.7-1.3-1-2C315,333,315,333,316,330c0.8,0.1,1.5,0.3,2.3,0.4
	c27,4.4,56.1,3.4,79.1-12.8c10.1-7.5,15-16.9,18.2-28.9c1.6-11.4,2-24.4-3.6-34.7c-0.9-1.6-0.9-1.6-1.8-3.3
	c-9.7-11.5-25.8-15.2-40.2-16.7c-8.8-0.5-17.7-0.3-26.5-0.2c-2.4,0-4.8,0-7.2,0c-5.8,0-11.6,0.1-17.3,0.1c-0.4,1.3-0.4,1.3-0.8,2.7
	c-1.1,3-2.2,5.4-3.8,8c-0.8,1.3-0.8,1.3-1.6,2.6c-0.5,0.9-1.1,1.8-1.6,2.7c-0.5,0.9-1.1,1.8-1.6,2.7c-2.2,3.6-4.4,7.2-6.8,10.7
	c-2.6,4.1-2.8,7.7-3,12.5c-0.1,1.8-0.1,1.8-0.1,3.7c0,1.3-0.1,2.7-0.1,4c0,1.4-0.1,2.8-0.1,4.3c-0.1,3.9-0.2,7.8-0.4,11.6
	c-0.1,4.1-0.3,8.2-0.4,12.4c-0.3,7.9-0.5,15.9-0.7,23.8c-0.2,6.4-0.4,12.7-0.6,19.1c-1.7,53.1-3.1,106.1-4.2,159.2
	c-25.1,0-50.2,0-76,0c1-12.2,2-24.4,3-37c1.1-15.1,1.1-15.1,2.2-30.3c0.2-3,0.4-6,0.6-9c2.1-30.2,3.8-60.5,5.2-90.7
	c-1.1,0.5-2.1,1-3.2,1.4c-1.4,0.6-2.9,1.3-4.3,1.9c-0.7,0.3-1.4,0.6-2.1,1c-6.9,3.1-13.9,5.1-21.4,6.7c-1,0.2-2.1,0.5-3.2,0.7
	c-44.6,7.9-91.2-10.5-132.6-25c-2.3-0.8-2.3-0.8-5.2-0.7c-0.3,0.8-0.6,1.5-0.8,2.3C49.3,350.2,40.4,361.6,26,369
	c-3.3,1.1-5.9,1.2-9.4,1.2c-1.1,0-2.2,0.1-3.4,0.1C9.6,370,7.9,369.2,5,367c-4-5.2-5.5-10.5-5-17c2.2-7,5.6-13,9.7-19.1
	c0.6-0.8,1.1-1.7,1.7-2.6c1.8-2.8,3.7-5.5,5.5-8.3c1.3-1.9,2.6-3.9,3.9-5.8c10.5-15.7,21-31.4,31.7-47c3.2-4.7,6.4-9.5,9.5-14.2
	c0.4-0.7,0.9-1.3,1.3-2c1.2-1.8,2.3-3.5,3.4-5.3c0.6-0.9,1.2-1.9,1.8-2.9c3-6,3.2-12.3,3.4-18.9c0-0.8,0.1-1.6,0.1-2.4
	c0.4-13.4-0.7-26.3-2.6-39.6c-6-40.4-3.9-74.3,20.8-108.2c5.3-7.1,11.4-13.6,17.7-19.8c0.4-0.5,0.9-1,1.4-1.5
	C131.6,28.7,166.2,18,197,11c1,0,2,0,3,0c-0.1-0.9-0.2-1.9-0.2-2.8C200,5,200,5,201.5,3.2C208.3-0.1,217.2-2,224,2z"/>
<path d="M404,184c28.8,3.7,53.4,11.2,72,35c13.7,19.2,15.5,44.6,11.9,67.3c-4.1,22.7-15.9,42-34.7,55.6c-16.3,11.3-35,17.1-54.2,21
	c7.7,14.4,15.4,28.7,23.2,43.1c4,7.3,8,14.7,11.9,22.1c4.3,8,8.6,15.9,12.9,23.9c4.9,9,9.8,18.1,14.7,27.1c3,5.6,6,11.2,9.1,16.8
	c0.6,1.1,1.2,2.2,1.8,3.4c1.2,2.1,2.3,4.3,3.5,6.4c0.5,0.9,1,1.9,1.6,2.9c0.5,0.8,0.9,1.7,1.4,2.5c1,1.9,1,1.9,1,2.9
	c-26.7,0-53.5,0-81,0c-5.9-14.4-5.9-14.4-12-29c-12.2-29.1-25.8-57.6-39.7-85.9c-0.4-0.8-0.8-1.7-1.2-2.5
	c-4.5-9.3-9.1-18.6-13.7-27.9c-2.1-4.2-4.1-8.3-6.2-12.5c-1-2-2-4-3-6.1c-1.4-2.8-2.8-5.6-4.2-8.4c-0.4-0.8-0.8-1.7-1.3-2.5
	c-0.4-0.8-0.8-1.5-1.1-2.3c-0.5-1-0.5-1-1-2C315,333,315,333,316,330c0.8,0.1,1.5,0.3,2.3,0.4c27,4.4,56.1,3.4,79.1-12.8
	c10.1-7.5,15-16.9,18.2-28.9c1.6-11.4,2-24.4-3.6-34.7c-0.6-1.1-1.2-2.2-1.8-3.3c-9.7-11.6-25.8-15-40.2-16.7
	c-8.2-0.6-16.3-0.6-24.5-0.7c-2.2,0-4.4-0.1-6.6-0.1c-5.3-0.1-10.6-0.2-15.9-0.2c1.2-2.9,2.4-5.8,3.6-8.7c0.3-0.8,0.7-1.6,1-2.5
	c3.5-8.2,8.4-11.8,16.4-15.8c0.7-0.4,1.5-0.8,2.3-1.2c9.3-4.8,18.7-8.8,28.7-11.8c2.6-0.9,5.2-1.7,7.8-2.6
	c13.9-4.7,13.9-4.7,21.2-4.4C404,185.3,404,184.7,404,184z"/>
<path d="M298,274c0.3,0,0.7,0,1,0c0.1,16.3-0.1,32.6-0.7,48.9c-0.1,3.9-0.3,7.7-0.4,11.6c-0.2,5.5-0.4,11.1-0.5,16.6
	c-0.5,14.4-0.9,28.9-1.4,43.3c0,1.1,0,1.1-0.1,2.2c-1.2,39.1-2.1,78.2-3,117.4c-25.1,0-50.2,0-76,0c1-12.2,2-24.4,3-37
	c0.7-10.1,1.5-20.3,2.2-30.4c0.3-3.8,0.5-7.6,0.8-11.4c1.1-15.6,2.1-31.1,2.5-46.7c0.1-2.5,0.1-5.1,0.2-7.6
	c0.1-4.7,0.2-9.4,0.2-14.1c0.3-14.4,0.3-14.4,3.6-18.5c3.6-3,7.5-4.8,11.8-6.5c3.6-1.5,6.3-4.1,9.1-6.7c0.6-0.5,1.2-1,1.7-1.5
	c11.8-10.6,21.1-23.4,29.9-36.5c3.3-5,6.9-9.8,10.5-14.7c0.6-0.8,1.1-1.6,1.7-2.4c0.8-1.1,0.8-1.1,1.6-2.1
	C297.1,276,297.1,276,298,274z"/>
<path class="st1" d="M298,268c0.3,0,0.7,0,1,0c0.8,6.1-1.7,9.2-5.1,13.9c-0.8,1.1-0.8,1.1-1.5,2.2c-1.4,2-2.9,4-4.3,6
	c-0.6,0.8-1.1,1.5-1.7,2.3c-0.9,1.2-1.8,2.4-2.7,3.6c-1.8,2.3-3.5,4.7-5.1,7.1c-13.7,19.3-27.9,36.3-49.4,47c-0.3-2.3-0.3-2.3,0-5
	c1.7-1.6,1.7-1.6,4.1-3.1c4.5-2.9,8.8-6,13.1-9.4c0.6-0.4,1.1-0.9,1.7-1.3c7.1-5.6,12.9-11.9,18.3-19c0.6-0.7,1.1-1.5,1.7-2.2
	c4.8-6.4,9.5-12.9,14-19.5c3.4-4.8,6.8-9.6,10.3-14.4c0.8-1.2,0.8-1.2,1.7-2.4c0.8-1.1,0.8-1.1,1.6-2.2c0.7-1,0.7-1,1.4-2
	C297.3,268.9,297.6,268.5,298,268z"/>
<path d="M394,184c3.3,0,6.6,0,10,0c0,0.7,0,1.3,0,2c-4.5,0.5-4.5,0.5-9,1C394.7,186,394.3,185,394,184z"/>
</svg>
