<?xml version="1.0" encoding="utf-8"?>
<!-- Generator: Adobe Illustrator 26.1.0, SVG Export Plug-In . SVG Version: 6.00 Build 0)  -->
<svg version="1.1" id="Layer_1" xmlns="http://www.w3.org/2000/svg" xmlns:xlink="http://www.w3.org/1999/xlink" x="0px" y="0px"
	 viewBox="0 0 2500 2500" style="enable-background:new 0 0 2500 2500;" xml:space="preserve">
<style type="text/css">
	.st0{fill-rule:evenodd;clip-rule:evenodd;fill:#FFFFFF;fill-opacity:0;}
	.st1{fill-rule:evenodd;clip-rule:evenodd;}
</style>
<g>
	<path class="st0" d="M0,0h2500v2500H0V0z"/>
	<path class="st1" d="M2338.7,988.7c-30.3,0-52.6,22.3-52.6,51c0,28.7,22.3,51,52.6,51c28.7,0,51-22.3,51-51
		C2389.7,1011,2367.4,988.7,2338.7,988.7z M2337.1,996.6h1.6c22.3,0,39.9,19.1,39.9,43c0,23.9-17.6,43-39.9,43
		c-23.9,0-41.4-19.1-41.4-43C2297.3,1015.8,2313.2,998.2,2337.1,996.6L2337.1,996.6z M2318,1011v59h9.6v-25.5h9.6l15.9,25.5h9.5
		l-15.9-27.1c9.6,0,14.3-6.4,14.3-15.9c0-11.2-6.4-15.9-20.7-15.9L2318,1011L2318,1011z M2327.5,1036.5v-19.1h12.7
		c8,0,12.8,3.2,12.8,9.6c0,6.4-4.8,9.6-11.2,9.6L2327.5,1036.5L2327.5,1036.5z M724,1215c-27.1-20.7-60.6-38.2-105.2-51
		c-57.4-19.1-138.7-38.3-172.2-49.4c-20.7-8-30.3-20.7-30.3-38.2c0-23.9,28.7-38.2,63.8-39.8c57.4,1.6,74.9,33.5,78.1,57.4H724
		L724,1215L724,1215L724,1215z M931.2,1369.6h122.7c106.8-1.6,192.9-55.8,235.9-132.3c3.2-6.4,6.4-12.7,9.5-19.1
		c6.4,8,12.8,12.7,19.2,19.1c30.3,25.5,66.9,44.6,106.8,57.4c63.8,22.3,113.2,38.2,130.7,44.6c31.9,14.3,52.6,23.9,52.6,52.6
		c0,33.5-38.2,47.8-76.5,49.4c-52.6-1.6-106.8-27.1-105.2-81.3h-210.4c11.2,138.7,148.2,247.1,310.8,250.3
		c98.8-1.6,189.7-30.3,248.7-100.4c59,60.6,127.5,98.8,224.8,100.4c153-1.6,312.4-76.5,314-239.1c0-51-14.4-97.2-46.2-133.9
		c-28.7-33.5-70.1-57.4-127.5-73.3c-57.4-19.1-138.7-38.3-172.1-49.4c-20.7-8-30.3-20.7-30.3-38.2c0-23.9,28.7-38.2,63.8-39.8
		c57.4,1.6,74.9,33.5,78.1,57.4h199.2c1.6-137.1-113.2-229.5-277.4-229.5c-122.7,0-205.6,46.2-245.5,113.2
		c-44.6-70.1-133.9-113.2-245.5-113.2c-118,0-197.7,44.6-240.7,108.4c-47.8-62.2-127.5-102-223.2-102H724v105.2
		c-44.6-70.1-133.9-111.6-243.9-111.6c-170.6,0-263,94-272.6,202.4c0,66.9,31.9,127.5,82.9,170.6c28.7,25.5,63.8,44.6,103.6,57.4
		c63.8,22.3,113.2,38.2,130.7,44.6c31.9,14.3,52.6,23.9,52.6,52.6c0,33.5-39.9,47.8-76.5,49.4c-52.6-1.6-106.8-27.1-105.2-81.3
		H185.2c11.2,138.7,148.2,247.1,310.8,250.3c89.3-1.6,172.1-25.5,227.9-78.1v66.9h207.2L931.2,1369.6L931.2,1369.6L931.2,1369.6z
		 M931.2,1042.9h111.6c41.5,0,76.5,35.1,76.5,78.1c0,43-35.1,78.1-76.5,78.1H931.2V1042.9z M1777.6,1237.3
		c-28.7-33.5-70.1-57.4-127.5-73.3c-57.4-19.1-138.7-38.3-170.6-49.4c-22.3-8-31.9-20.7-31.9-38.2c0-23.9,28.7-38.2,63.8-39.8
		c59,1.6,74.9,33.5,78.1,57.4h140.3c8,55.8,36.7,105.2,81.3,143.5c30.3,25.5,65.4,44.6,105.2,57.4c63.8,22.3,113.2,38.2,129.1,44.6
		c33.5,14.3,54.2,23.9,54.2,52.6c0,33.5-39.8,47.8-76.5,49.4c-52.6-1.6-106.8-27.1-105.2-81.3h-94
		C1820.7,1312.3,1806.3,1270.8,1777.6,1237.3L1777.6,1237.3z"/>
</g>
</svg>
