<?xml version="1.0" encoding="utf-8"?>
<!-- Generator: Adobe Illustrator 26.1.0, SVG Export Plug-In . SVG Version: 6.00 Build 0)  -->
<svg version="1.1" id="Layer_1" xmlns="http://www.w3.org/2000/svg" xmlns:xlink="http://www.w3.org/1999/xlink" x="0px" y="0px"
	 viewBox="0 0 1766.9 1766.9" style="enable-background:new 0 0 1766.9 1766.9;" xml:space="preserve">
<style type="text/css">
	.st0{fill-rule:evenodd;clip-rule:evenodd;}
</style>
<g>
	<path class="st0" d="M447.4,864.8c-22.5-17.2-50.2-31.7-87.2-42.3c-47.6-15.8-115-31.8-142.8-41c-17.2-6.6-25.1-17.2-25.1-31.7
		c0-19.8,23.8-31.7,52.9-33c47.6,1.3,62.1,27.8,64.8,47.6h137.5V864.8L447.4,864.8L447.4,864.8z M619.1,993h101.7
		c88.5-1.3,159.9-46.3,195.6-109.7c2.7-5.3,5.3-10.5,7.9-15.8c5.3,6.6,10.6,10.5,15.9,15.8c25.1,21.1,55.5,37,88.5,47.6
		c52.9,18.5,93.9,31.7,108.4,37c26.4,11.9,43.6,19.8,43.6,43.6c0,27.8-31.7,39.6-63.4,41c-43.6-1.3-88.5-22.5-87.2-67.4H855.7
		c9.3,115,122.9,204.9,257.7,207.5c81.9-1.3,157.3-25.1,206.2-83.2c48.9,50.2,105.7,81.9,186.4,83.2c126.8-1.3,259-63.4,260.3-198.2
		c0-42.3-11.9-80.6-38.3-111c-23.8-27.8-58.1-47.6-105.7-60.8c-47.6-15.8-115-31.8-142.7-41c-17.2-6.6-25.1-17.2-25.1-31.7
		c0-19.8,23.8-31.7,52.9-33c47.6,1.3,62.1,27.8,64.8,47.6h165.1c1.3-113.7-93.9-190.3-230-190.3c-101.7,0-170.5,38.3-203.5,93.9
		c-37-58.1-111-93.9-203.5-93.9c-97.8,0-163.9,37-199.6,89.9c-39.6-51.6-105.7-84.6-185-84.6H447.4v87.2
		c-37-58.1-111-92.5-202.2-92.5c-141.4,0-218,77.9-226,167.8c0,55.5,26.4,105.7,68.7,141.4c23.8,21.1,52.9,37,85.9,47.6
		c52.9,18.5,93.9,31.7,108.4,37c26.4,11.9,43.6,19.8,43.6,43.6c0,27.8-33.1,39.6-63.4,41c-43.6-1.3-88.5-22.5-87.2-67.4H0.7
		c9.3,115,122.9,204.9,257.7,207.5c74-1.3,142.7-21.1,188.9-64.8v55.5h171.8L619.1,993L619.1,993L619.1,993z M619.1,722.1h92.5
		c34.4,0,63.4,29.1,63.4,64.8s-29.1,64.8-63.4,64.8h-92.5V722.1z M1320.9,883.3c-23.8-27.8-58.1-47.6-105.7-60.8
		c-47.6-15.8-115-31.8-141.4-41c-18.5-6.6-26.4-17.2-26.4-31.7c0-19.8,23.8-31.7,52.9-33c48.9,1.3,62.1,27.8,64.8,47.6h116.3
		c6.6,46.3,30.4,87.2,67.4,119c25.1,21.1,54.2,37,87.2,47.6c52.9,18.5,93.9,31.7,107,37c27.8,11.9,44.9,19.8,44.9,43.6
		c0,27.8-33,39.6-63.4,41c-43.6-1.3-88.5-22.5-87.2-67.4h-77.9C1356.6,945.5,1344.7,911.1,1320.9,883.3L1320.9,883.3z"/>
</g>
</svg>
