<svg xmlns="http://www.w3.org/2000/svg" viewBox="0 0 454.04 417.75"><title>Airplane tickets</title><g id="Layer_2" data-name="Layer 2"><g id="Слой_1" data-name="Слой 1"><g id="Airplane_tickets" data-name="Airplane tickets"><path d="M348,55c68.9,5,113.7,108.1,104.9,146.8s-48.6,173.6-157.4,209c-109.6,35.6-277.9-71.1-293.5-176.5s59.9-223.5,168.8-233.2C279.64-8.44,261.94,48.76,348,55Z" fill="#ffe3e3"/><path d="M110.84,397.46,87,356.26l5.2-3a37.9,37.9,0,0,0,13.9-51.7h0a37.78,37.78,0,0,0-51.7-13.8l-5.2,3-23.8-41.2,61.8-35.7,15.6-203.6,47.5,3.4-.4,6a37.85,37.85,0,0,0,75.5,5.5l.4-6,47.5,3.5-6.7,87.6,75.9-43.8,23.8,41.2-5.2,3a37.86,37.86,0,0,0,37.8,65.6l5.2-3,23.8,41.2-5.2,3Zm-15.6-39h0l17.8,30.9,306.7-177.1h0l-17.8-30.8h0a43.86,43.86,0,1,1-43.8-76h0l-17.8-30.8h0l-80.6,46.5,7.1-92.9h0l-35.5-2.6h0a43.86,43.86,0,1,1-87.5-6.3l-35.5-2.6-15.4,200.7-59.3,34.3h0l17.8,30.8a43.82,43.82,0,0,1,58.3,13.5l.1-.1,3,5.2-.1.1a43.91,43.91,0,0,1-17.5,57.2Z" fill="#fff"/><path d="M88.34,277.56l20-260.8,35.5,2.6a43.86,43.86,0,1,0,87.5,6.3l35.5,2.6-20,260.8-35.5-2.6a43.81,43.81,0,1,0-87.4-6.3Z" fill="#9cccc2" fill-rule="evenodd"/><path d="M253.24,91.56l-6-.4.2-3,6,.4Zm-15.9-1.2-6-.4.2-3,6,.4Zm-16-1.2-6-.4.2-3,6,.4Zm-15.9-1.1-6-.4.2-3,6,.4Zm-16-1.2-6-.4.2-3,6,.4Zm-15.9-1.1-6-.4.2-3,6,.4Zm-16-1.2-6-.4.2-3,6,.4Zm-16-1.2-6-.4.2-3,6,.4Zm-15.9-1.1-6-.4.2-3,6,.4Zm-16-1.2-6-.4.2-3,6,.4Z" fill="#fff"/><path d="M33.64,251.76l306.7-177.1,17.8,30.8a43.86,43.86,0,1,0,43.8,76l17.8,30.8L113,389.36l-17.8-30.8a43.82,43.82,0,1,0-43.8-75.9Z" fill="#b6e3da" fill-rule="evenodd"/><path d="M162,351.16l-3-5.2,2.6-1.5,3,5.2Zm-8-13.9-3-5.2,2.6-1.5,3,5.2Zm-8-13.9-3-5.2,2.6-1.5,3,5.2Zm-8-13.8-3-5.2,2.6-1.5,3,5.2Zm-8-13.9-3-5.2,2.6-1.5,3,5.2Zm-8-13.8-3-5.2,2.6-1.5,3,5.2ZM114,268l-3-5.2,2.6-1.5,3,5.2Zm-8-13.8-3-5.2,2.6-1.5,3,5.2Zm-8-13.9-3-5.2,2.6-1.5,3,5.2Zm-8-13.8-3-5.2,2.6-1.5,3,5.2Z" fill="#fff"/><path d="M359.84,236.56l-3-5.2,2.6-1.5,3,5.2Zm-8-13.8-3-5.2,2.6-1.5,3,5.2Zm-8-13.9-3-5.2,2.6-1.5,3,5.2Zm-8-13.9-3-5.2,2.6-1.5,3,5.2Zm-8-13.8-3-5.2,2.6-1.5,3,5.2Zm-8-13.9-3-5.2,2.6-1.5,3,5.2Zm-8-13.8-3-5.2,2.6-1.5,3,5.2Zm-8-13.9-3-5.2,2.6-1.5,3,5.2Zm-8-13.8-3-5.2,2.6-1.5,3,5.2Zm-8-13.9-3-5.2,2.6-1.5,3,5.2Z" fill="#fff"/><path d="M191.74,261.66c9.3-.6,26-6.9,42.3-15l7.5,38.8,8.3-9.4,7.8-42.9c18.1-12,24.2-21.3,20.6-27.6s-14.6-5.7-33.8,3.8l-41.7-14.9-12.3,2.5,30.2,26.2c-15.3,10.1-29.1,21.4-34.3,29.2l-10.4-6.2-9.8,2.6,17.1,11.6,1.5,20.6,7.2-7.2Z" fill="#fff"/></g></g></g></svg>