<svg version="1.1" id="Layer_1" xmlns="http://www.w3.org/2000/svg" xmlns:xlink="http://www.w3.org/1999/xlink" x="0px" y="0px"
	width="360" height="360" viewBox="0 0 512 512" style="enable-background:new 0 0 512 512;" xml:space="preserve">
<!-- Define all styles and gradients first -->
<defs>
    <linearGradient id="blueGradient" x1="0%" y1="0%" x2="100%" y2="100%">
        <stop offset="0%" style="stop-color:#96C4FF">
            <animate attributeName="stop-color" values="#96C4FF; #88B8FF; #96C4FF" dur="5s" repeatCount="indefinite"/>
        </stop>
        <stop offset="100%" style="stop-color:#3C72D6">
            <animate attributeName="stop-color" values="#3C72D6; #3068CC; #3C72D6" dur="5s" repeatCount="indefinite"/>
        </stop>
    </linearGradient>
    
    <linearGradient id="pinkGradient" x1="0%" y1="0%" x2="100%" y2="100%">
        <stop offset="0%" style="stop-color:#FFADC8">
            <animate attributeName="stop-color" values="#FFADC8; #FFA0C0; #FFADC8" dur="5s" repeatCount="indefinite"/>
        </stop>
        <stop offset="100%" style="stop-color:#D15F7A">
            <animate attributeName="stop-color" values="#D15F7A; #C85575; #D15F7A" dur="5s" repeatCount="indefinite"/>
        </stop>
    </linearGradient>
    
    <filter id="shadow" x="-10%" y="-10%" width="120%" height="120%">
        <feDropShadow dx="3" dy="3" stdDeviation="3" flood-opacity="0.3"/>
    </filter>

<style type="text/css">
  .credit {
    font-family: 'Kiddosy Free', 'Architects Daughter', 'Handlee', 'Patrick Hand', cursive;
    font-size: 30px;
    fill: #888888;
    opacity: 0.8;
  }
  .credit:hover {
    fill: #666666;
    opacity: 1;
  }
</style>

</defs>

<style type="text/css">
    .st0{fill:#F9F2E7;}
    .st1{fill:none;}
    .st2{fill:url(#blueGradient);}
    .st3{fill:url(#pinkGradient);}
    
    @keyframes pulseOpacity {
        0% { opacity: 0.9; }
        50% { opacity: 1; }
        100% { opacity: 0.9; }
    }
      
    .animated-element {
        animation: pulseOpacity 4s infinite;
    }
</style>

<!-- Background must be first -->
<rect class="st0" width="512" height="512"/>

<!-- Hidden paths for blue central element - add them here -->
<path class="st1" d="M234.5,161.1c4.7-2.2,7.5-0.2,8.2,5.9C239.1,166,236.1,164.7,234.5,161.1z"/>
<path class="st1" d="M273,153.9c-1.3,6.3-5.3,9.9-10.4,13C261.9,160.5,266.8,154.1,273,153.9z"/>
<path class="st1" d="M255.1,377.7c-0.7,0-1.6-0.1-2.5-0.2c-0.5-67.6,0.7-135-1.2-202.6c0.6-0.4,1.7-0.3,2.8,0.1
    C253.8,242.4,253.8,309.9,255.1,377.7z"/>

<!-- Ripple effect below everything -->
<circle cx="256" cy="256" r="0" fill="none" stroke="#779FF2" stroke-width="1">
    <animate attributeName="r" values="0;100" dur="4s" repeatCount="indefinite"/>
    <animate attributeName="opacity" values="0.5;0" dur="4s" repeatCount="indefinite"/>
</circle>

<!-- Thinking particles -->
<g id="thinking-particles" class="animated-element">
    <circle cx="210" cy="190" r="2" fill="#96C4FF">
        <animateMotion path="M0,0 C10,10 20,-10 30,0" dur="3s" repeatCount="indefinite"/>
        <animate attributeName="opacity" values="0;0.7;0" dur="3s" repeatCount="indefinite"/>
    </circle>
    <circle cx="310" cy="180" r="2" fill="#96C4FF">
        <animateMotion path="M0,0 C-15,15 15,15 0,0" dur="4s" repeatCount="indefinite"/>
        <animate attributeName="opacity" values="0;0.7;0" dur="4s" repeatCount="indefinite"/>
    </circle>
    <circle cx="260" cy="140" r="2" fill="#FFADC8">
        <animateMotion path="M0,0 C10,-20 -10,-20 0,0" dur="3.5s" repeatCount="indefinite"/>
        <animate attributeName="opacity" values="0;0.7;0" dur="3.5s" repeatCount="indefinite"/>
    </circle>
    <circle cx="180" cy="220" r="1.5" fill="#FFADC8">
        <animateMotion path="M0,0 C-5,15 15,5 10,-10" dur="4.5s" repeatCount="indefinite"/>
        <animate attributeName="opacity" values="0;0.6;0" dur="4.5s" repeatCount="indefinite"/>
    </circle>
    <circle cx="340" cy="230" r="1.8" fill="#96C4FF">
        <animateMotion path="M0,0 C15,10 -5,20 -15,5" dur="5s" repeatCount="indefinite"/>
        <animate attributeName="opacity" values="0;0.7;0" dur="5s" repeatCount="indefinite"/>
    </circle>
    <circle cx="230" cy="300" r="1.2" fill="#FFADC8">
        <animateMotion path="M0,0 C-10,-10 -20,5 0,15" dur="3.8s" repeatCount="indefinite"/>
        <animate attributeName="opacity" values="0;0.5;0" dur="3.8s" repeatCount="indefinite"/>
    </circle>
    <circle cx="290" cy="270" r="1.4" fill="#96C4FF">
        <animateMotion path="M0,0 C5,15 15,-5 5,-20" dur="4.2s" repeatCount="indefinite"/>
        <animate attributeName="opacity" values="0;0.7;0" dur="4.2s" repeatCount="indefinite"/>
    </circle>
    <circle cx="170" cy="170" r="1.3" fill="#FFADC8">
        <animateMotion path="M0,0 C-15,-5 -5,20 10,10" dur="3.6s" repeatCount="indefinite"/>
        <animate attributeName="opacity" values="0;0.6;0" dur="3.6s" repeatCount="indefinite"/>
    </circle>
</g>

<!-- Main content with all animation transforms -->
<g id="main-content" style="filter:url(#shadow)">
    <!-- Apply multiple animations to brain figures -->
    <g id="brain-elements">
        <animateTransform attributeName="transform" type="translate" values="0,3; 0,-3; 0,3" 
                        dur="6s" repeatCount="indefinite" additive="sum"
                        calcMode="spline" keySplines="0.4 0 0.6 1; 0.4 0 0.6 1"/>
        <animateTransform attributeName="transform" type="rotate" 
                        values="0 256 256; 2 256 256; 0 256 256; -2 256 256; 0 256 256"
                        dur="8s" repeatCount="indefinite" additive="sum"
                        calcMode="spline" keySplines="0.4 0 0.6 1; 0.4 0 0.6 1; 0.4 0 0.6 1; 0.4 0 0.6 1"/>
        
        <!-- Blue center element with pulsing scale animation -->
        <g id="central-elements" class="animated-element">
            <animateTransform attributeName="transform" type="scale" 
                            values="1; 1.02; 1" 
                            dur="3s" 
                            repeatCount="indefinite" 
                            additive="sum"
                            calcMode="spline" 
                            keySplines="0.4 0 0.6 1; 0.4 0 0.6 1"/>
            
            <path class="st2" d="M245.8,173.9c-5-1.2-8.6-2.6-11.8-5c-3-2.2-5.3-4.9-4.7-9c0.4-3.2,2.8-4.7,5.7-5.2c3.9-0.6,7.6-0.1,10.3,3.3
            c2.5,3.1,3.2,7.1,4.5,10.7c1.9,0.7,3.7,0.6,5.5,0.2c1.3-3.8,2.4-7.7,4-11.4c2.2-5.2,6.1-8.6,11.9-9.3c5-0.6,8.1,2.4,7.1,7.4
            c-1.7,8.3-7.3,13.4-14.6,16.7c-2.4,1.1-3.4,2.5-3.5,5.2c-1.3,44-0.4,88-0.3,132c0.1,17.7,0.1,35.5,0.4,53.2c0.1,5,0.7,10,1,15.4
            c6.3,0.3,10.9,3,14.5,7.6c2.9,3.7,3,7.1-0.4,10.4c-2,1.9-2.6,4-1.3,6.5c1.7,3.4,5.6,5.9,5.3,10.2c-0.2,4-4,6.4-5.3,9.9
            c4.4,4.8,4.4,9-1.2,12.6c-6.3,4.1-12,10.8-20.4,9.3c-8.5-1.6-15.7-6.3-21-13.2c-2.3-3-0.5-6.1,2.4-8.4c-0.4-0.8-0.8-1.7-1.4-2.4
            c-5.1-5.5-5.2-10.8,0.2-16.3c1.8-1.8,2.6-4.3,0.8-7c-5.1-7.7-1.9-15.6,7.3-18.1c1.9-0.5,3.8-0.9,6.2-1.4
            C246.5,309.8,247.9,241.9,245.8,173.9z">
                <animate attributeName="d" 
                   values="M245.8,173.9c-5-1.2-8.6-2.6-11.8-5c-3-2.2-5.3-4.9-4.7-9c0.4-3.2,2.8-4.7,5.7-5.2c3.9-0.6,7.6-0.1,10.3,3.3
                   c2.5,3.1,3.2,7.1,4.5,10.7c1.9,0.7,3.7,0.6,5.5,0.2c1.3-3.8,2.4-7.7,4-11.4c2.2-5.2,6.1-8.6,11.9-9.3c5-0.6,8.1,2.4,7.1,7.4
                   c-1.7,8.3-7.3,13.4-14.6,16.7c-2.4,1.1-3.4,2.5-3.5,5.2c-1.3,44-0.4,88-0.3,132c0.1,17.7,0.1,35.5,0.4,53.2c0.1,5,0.7,10,1,15.4
                   c6.3,0.3,10.9,3,14.5,7.6c2.9,3.7,3,7.1-0.4,10.4c-2,1.9-2.6,4-1.3,6.5c1.7,3.4,5.6,5.9,5.3,10.2c-0.2,4-4,6.4-5.3,9.9
                   c4.4,4.8,4.4,9-1.2,12.6c-6.3,4.1-12,10.8-20.4,9.3c-8.5-1.6-15.7-6.3-21-13.2c-2.3-3-0.5-6.1,2.4-8.4c-0.4-0.8-0.8-1.7-1.4-2.4
                   c-5.1-5.5-5.2-10.8,0.2-16.3c1.8-1.8,2.6-4.3,0.8-7c-5.1-7.7-1.9-15.6,7.3-18.1c1.9-0.5,3.8-0.9,6.2-1.4
                   C246.5,309.8,247.9,241.9,245.8,173.9z; 
                   
                   M246.2,174.2c-5.1-1.3-8.8-2.7-12-5.1c-3.1-2.3-5.4-5-4.8-9.2c0.4-3.3,2.9-4.8,5.8-5.3c4-0.6,7.8-0.1,10.5,3.4
                   c2.6,3.2,3.3,7.3,4.6,10.9c1.9,0.7,3.8,0.6,5.6,0.2c1.3-3.9,2.4-7.9,4.1-11.6c2.2-5.3,6.2-8.8,12.1-9.5c5.1-0.6,8.3,2.4,7.2,7.5
                   c-1.7,8.5-7.4,13.7-14.9,17c-2.4,1.1-3.5,2.6-3.6,5.3c-1.3,44.9-0.4,89.8-0.3,134.7c0.1,18.1,0.1,36.2,0.4,54.3c0.1,5.1,0.7,10.2,1,15.7
                   c6.4,0.3,11.1,3.1,14.8,7.8c3,3.8,3.1,7.2-0.4,10.6c-2,1.9-2.7,4.1-1.3,6.6c1.7,3.5,5.7,6,5.4,10.4c-0.2,4.1-4.1,6.5-5.4,10.1
                   c4.5,4.9,4.5,9.2-1.2,12.9c-6.4,4.2-12.2,11-20.8,9.5c-8.7-1.6-16-6.4-21.4-13.5c-2.3-3.1-0.5-6.2,2.4-8.6c-0.4-0.8-0.8-1.7-1.4-2.4
                   c-5.2-5.6-5.3-11,0.2-16.6c1.8-1.8,2.7-4.4,0.8-7.1c-5.2-7.9-1.9-15.9,7.4-18.5c1.9-0.5,3.9-0.9,6.3-1.4
                   C246.9,311.1,248.3,242.5,246.2,174.2z;
                   
                   M245.8,173.9c-5-1.2-8.6-2.6-11.8-5c-3-2.2-5.3-4.9-4.7-9c0.4-3.2,2.8-4.7,5.7-5.2c3.9-0.6,7.6-0.1,10.3,3.3
                   c2.5,3.1,3.2,7.1,4.5,10.7c1.9,0.7,3.7,0.6,5.5,0.2c1.3-3.8,2.4-7.7,4-11.4c2.2-5.2,6.1-8.6,11.9-9.3c5-0.6,8.1,2.4,7.1,7.4
                   c-1.7,8.3-7.3,13.4-14.6,16.7c-2.4,1.1-3.4,2.5-3.5,5.2c-1.3,44-0.4,88-0.3,132c0.1,17.7,0.1,35.5,0.4,53.2c0.1,5,0.7,10,1,15.4
                   c6.3,0.3,10.9,3,14.5,7.6c2.9,3.7,3,7.1-0.4,10.4c-2,1.9-2.6,4-1.3,6.5c1.7,3.4,5.6,5.9,5.3,10.2c-0.2,4-4,6.4-5.3,9.9
                   c4.4,4.8,4.4,9-1.2,12.6c-6.3,4.1-12,10.8-20.4,9.3c-8.5-1.6-15.7-6.3-21-13.2c-2.3-3-0.5-6.1,2.4-8.4c-0.4-0.8-0.8-1.7-1.4-2.4
                   c-5.1-5.5-5.2-10.8,0.2-16.3c1.8-1.8,2.6-4.3,0.8-7c-5.1-7.7-1.9-15.6,7.3-18.1c1.9-0.5,3.8-0.9,6.2-1.4
                   C246.5,309.8,247.9,241.9,245.8,173.9z" 
                   dur="7s" repeatCount="indefinite"
                   calcMode="spline" keySplines="0.4 0 0.6 1; 0.4 0 0.6 1"/>
            </path>
        </g>
        
        <!-- Put all the pink brain figures here inside the brain-elements group -->
        <g class="animated-element">
            <!-- Left side figure -->
            <path class="st3" d="M180.6,383.6c-25.1,0-57-11.9-64.2-45.3c-3.9-10.7-3.8-19.5-1.8-26.5c-0.9,0.3-1.9,0.5-3,0.5c0,0,0,0,0,0
			c-9,0-25.7-12.4-33-27.8c-5.6-11.8-4.6-23.5,3-32.7c0,0,0.1-0.1,0.1-0.1c3.5-3.9,6.4-8.3,9.5-12.9c3.3-5,6.7-10.1,10.9-14.6
			c-9.5-11.8-13.7-25-11.8-37.5c1.9-12.1,9.5-22.9,21.5-30.6c-2-15.4-2.1-32.9,8.9-48.8c9.9-14.4,24.5-21.8,44.6-22.6
			c6.4-14.1,20.6-23.1,36.9-23.1c12.4,0,24.1,5.2,32.2,14.2c6.1,3.6,8.1,13.1,5.3,25.7c-2.1,9.2-7,20-13.9,20c0,0,0,0,0,0
			c-2.4,0-5.8-1.3-8-7.3c-0.2-0.6-0.3-1.2-0.2-1.7c0.4-4.1-2.4-6.6-7.4-10.6c-4.7-3.8-10.7-8.6-11.3-16.7c0-0.4,0-0.8,0.1-1.2
			c1.1-4.8,0.1-6.2,0-6.3c-0.2-0.3-0.8-0.3-1.1-0.3c-3.9,0-10.7,4.3-14.7,9.4c22.4,5.9,27,17.8,30.9,27.5
			c2.5,6.2,4.4,11.2,10.5,14.3c5.8,1.6,7.1,5.8,6.3,9.3c0,0.1-0.1,0.2-0.1,0.3c-1.2,3.9-4.1,6.1-8,6.1c-2.2,0-4.5-0.7-6.6-1.7
			c-0.8,9.3-4.2,17.8-9.6,23.4c-0.7,0.7-1.4,1.4-2.2,2c10.8,2.1,20,7.1,25.7,14.3c6.3,8,8.2,18.3,5.5,29.9
			c-0.1,3.7-1.9,8.2-4.5,10.8c-2.1,2.1-4.1,2.6-5.5,2.6c-0.2,0-0.5,0-0.7,0c2.8,2.7,5.3,5.5,7.5,8.6c10.6,14.7,13.1,32,7.1,50.2
			c-2.5,10.1-3.2,17.9,1,27.9c0,0,0,0.1,0,0.1c8.3,21.8,2.6,37.1-3.6,46C225.8,374,204.4,383.6,180.6,383.6z M161.1,297.3
			c-21.1,1.7-32.5,10.2-32.5,24.5c0.1,21.2,25.9,48.1,54.7,48.1c13.4,0,25.8-5.7,36.8-16.9c8.2-9.4,10.8-19.4,7.5-29.8
			c-6-19.3-29.7-34.8-49-39.6c-0.2,0-0.3-0.1-0.4-0.1c-13.9-5.3-21-15.6-18.8-27.5c2.7-14.9,18.6-27.4,34.7-27.4
			c4.6,0,9.2,1,13.4,3c-7.2-6.4-15.5-10.2-23.3-10.2c-9.7,0-18,5.9-24.2,17.1c-2,4.8-5.4,5.5-7.3,5.5c-0.8,0-1.7-0.1-2.5-0.4
			c-0.5-0.2-0.9-0.4-1.3-0.7c-2.8-2.2-4.2-5.3-4-8.8c0.2-5.2,3.9-10.8,8-15.2c-16.3,1.5-35.1,9.2-43.1,20.4
			c8.2,4.5,14,10.5,16.5,17.1c2.3,6,1.9,12.4-1,18.9c-0.9,3.6-2.9,7-4.9,10.3c-4.2,7.1-5.7,10.5-2.8,14c0.4,0.5,0.7,1,0.8,1.6
			c0.1,0.3,0.2,0.7,0.2,1c0.3-0.5,0.7-1.1,1-1.6c8.4-12.1,24-19.6,40.8-19.6c16,0,30.4,6.8,39.4,18.8c8.2,7.7,10.8,21,6.6,34.7
			c-4.2,14-13.9,24.1-24.6,25.7c-0.2,0-0.4,0-0.6,0c-0.8,0-1.7-0.3-2.4-0.8c-3.4-2.4-4.2-6.3-2.3-10.4c1.1-6.6-3-12-7.8-18.1
			C162.6,322.5,154.8,312.4,161.1,297.3z M177.3,301.3c-5,7.8-0.4,14.7,7.4,24.9c1.8,2.3,3.5,4.6,5.1,7c2.8-5.1,3.6-10.5,2.2-15.7
			C190.3,310.6,185,304.8,177.3,301.3z M101.1,253.9c-4.8,0-7.8,6.7-8.6,13c-1.1,8.8,1.5,18.7,8.4,23c1.2-4,3.4-7.8,5.5-11.5
			c4.7-8.4,7.4-13.8,3.6-19.4C106.6,255.6,103.6,253.9,101.1,253.9z M181.9,267.4c5.2,3.3,11.3,5.8,17.6,8.4
			c8,3.3,16.2,6.6,23.3,12c5.7-12,4.7-26.9-2.9-40.8c-0.4-0.7-0.8-1.4-1.2-2.1c-0.9,3.6-3.9,6-7.4,6c-0.7,0-1.4-0.1-2-0.3
			c-0.4-0.1-0.9-0.2-1.3-0.2c-1.2,0-2.7,0.4-5.1,3.3C196.5,261.7,189.6,266.2,181.9,267.4z M189.8,244.7
			c-4.5,0.4-8.5,3.1-10.9,7.2C183.3,251.6,186.4,248.4,189.8,244.7z M161.8,201.8c21,0,41.6,7,56.6,18.6c-0.1-0.2-0.2-0.4-0.2-0.6
			c-0.1-0.1-0.1-0.3-0.1-0.4c-1.6-5.7-7.4-8.3-14.1-11.2c-9.1-4-20.3-8.9-21-24c-8.4,0.8-19.5,8.8-25.2,17.8
			C159.1,201.8,160.4,201.8,161.8,201.8z M120.2,169.2c-7.6,3.4-12.8,11-14,20.6c-1.2,9.6,2.1,18.6,8.5,24
			c2.8-0.7,5.7-2.2,8.8-3.7c4.3-2.1,8.6-4.2,13.5-5.1c1.7-2.4,3.4-4.9,5.1-7.3c7.9-11.6,15.9-23.5,31.4-27.9
			c-1.1-1.1-2.1-2.6-2.2-4.5c0-0.7,0-1.4,0.2-2c-7.5,5.4-17.4,8.1-29.6,8.1C135.5,171.5,128.4,170.7,120.2,169.2z M198.9,183.8
			c0.6,4.5,3.9,6.9,20.6,14.6c-0.4-2.6-1.6-5-3.3-7.2c-3.9-4.7-10.2-7.5-17-7.5C199,183.8,198.9,183.8,198.9,183.8z M127.8,154
			c4.8,1.2,9.8,1.9,14.4,1.9c5.8,0,19-1.1,24.9-10.9c-9.7-3.3-15.8-11.3-18.5-24.3c-0.1-0.3-0.1-0.7-0.1-1
			c0.1-1.9-0.6-2.5-3.6-4.1c-2-1.1-4.9-2.6-6.2-5.6c-2.6,2.3-4.7,5-6.3,8.3c0,0.1-0.1,0.2-0.1,0.3
			C127.2,127.4,125.3,142.8,127.8,154z M180.6,153.7c-0.3,0.5-0.6,1-1,1.4c0.6-0.5,1-1,1-1.3C180.6,153.8,180.6,153.8,180.6,153.7
			z M199.1,148.5c-1,0.8-1.8,2.3-2.7,5.1c0.5-0.4,0.8-0.8,1.2-1.3C198.4,151.2,198.9,150,199.1,148.5z M167.2,100.8
			c6.9,2.9,13,8.2,16.9,15c3.9,6.9,5.1,14.6,3.5,22c3.2-3.4,7.3-5.5,12.4-6.2c1.5-7.1,0.3-13.3-3.5-18.5
			C190.9,105.7,179.7,101,167.2,100.8z M163.6,116.3c2.9,9.3,5.3,12.4,7.7,13.3c-0.1-4.1-1.2-7.7-3.5-10.3
			C166.7,118,165.2,117,163.6,116.3z M214.2,80.4c0,3.3,1.9,8.2,10.8,14.4c0.3-2.1,0-4-0.8-5.8C222.7,85.7,219.3,82.7,214.2,80.4z
			"/>
            
            <!-- Right side figure -->
            <path class="st3" d="M328,384.5c-25,0-48.7-12.4-59.1-30.8c-8.6-15.2-7.6-33.2,2.6-51c-8.4-31-6-55.6,7.3-73.1
	c1.3-1.7,2.7-3.4,4.2-4.9c-0.3,0-0.7,0.1-1,0.1c-1.6,0-4.8-0.6-7.1-4.6c-4.2-7.3-4-24.1,3.2-36.5c4.1-7.2,12.1-15.7,26.7-16
	c-2.6-1.7-5.1-3.8-7-6.3c-4.4-5.6-6.1-12.4-4.9-19.9c-2.4,1.1-5.1,2.4-7.9,2.4c-3.7,0-6.4-2.3-7.5-6.2c0,0,0-0.1,0-0.1
	c-1-4.4,1.4-8.1,6.1-9.4c6.3-2.9,8.3-8,10.9-14.5c3.9-9.9,8.8-22.2,31.3-27.4c-1.8-2.8-10.2-8-16.3-9.1
	c1.9,13.4-7.1,21.8-15.9,28.6c-0.3,0.2-0.5,0.4-0.8,0.5c-1.7,0.7-1.9,1.5-2.1,4.7c-0.2,2.8-0.4,7-4.4,9.6
	c-0.7,0.4-1.4,0.7-2.2,0.7c-0.6,0-1.2-0.1-1.7-0.4c-10.8-5.1-16.8-15.8-15.7-27.9c1.3-13.6,11.1-25.2,24.4-28.8
	c5.6-2,11.1-3,16.3-3c14.7,0,26.8,8,35.1,23.2c20,0.8,34.6,8,44.6,22.2c11.2,15.9,11.1,33.7,9.2,49.3c13.6,11.2,21,23.2,22,35.8
	c0.8,11-3.3,21.9-12.3,32.3c14.1,16.1,28,34.4,26.3,52.6c-0.9,9.1-5.7,17.2-14.3,23.9c-3.5,3.6-15.4,11.6-22.4,11.6
	c-1.1,0-2-0.2-2.7-0.4c3,10,2.1,20.8-2.9,30.8C379.9,368.8,356.8,384.5,328,384.5C328.1,384.5,328,384.5,328,384.5z
	M319.9,288.3c-1.6,0.6-3.2,1.3-4.8,1.9c-13.4,5.3-27.2,10.8-31.7,23.3c0,0.1-0.1,0.3-0.2,0.4c-5.1,10.7-5.6,21.3-1.4,30.7
	c4.6,10.2,14.6,18,28.1,21.7c0.1,0,0.3,0.1,0.4,0.1c5.6,2.2,11.2,3.4,16.9,3.4c27.1,0,50.4-26.7,50.4-48.6			c0-4.9-1.2-11.8-7.2-16.9c-5.4-4.7-13.5-7.1-24.2-7.4c6.9,17.3-5.1,32.4-15,44.9c0,0-1.4,1.8-1.4,1.8c-0.3,0.8,0.3,3.5,0.6,5			c0.8,3.4,1.6,7-0.6,9.7c-0.9,1.1-2.5,2.3-5.3,2.3c-1.1,0-2.4-0.2-3.8-0.6c-0.4-0.1-0.8-0.3-1.2-0.6c-16.5-11.1-23.4-29-18-46.7			C304.7,302.5,311.3,294,319.9,288.3z M330.6,301.3c-8.3,4.4-13.7,10.5-15.2,17.4c-1.1,4.8-0.2,9.8,2.5,14.5		c1.6-2.5,3.5-4.9,5.3-7.3C330.8,316,335.4,309.2,330.6,301.3z M349.8,280.5c16,0,30.4,7.9,38.5,21.2c0.2,0.4,0.4,0.7,0.6,1.1		c0.3-1.3,0.7-2.4,1-2.9c0.2-0.4,0.4-0.7,0.6-1c2.6-3.1,1-6.6-3-13.2c-1.9-3.2-3.9-6.5-4.7-9.9c-3.1-6.9-3.5-13.5-1.2-19.7		c2.5-6.8,8.2-12.6,16.6-17c-6.2-9.7-25.9-19-43.7-20.6c4.6,5,9.1,10.9,8.7,16.8c-0.2,3-1.6,5.6-4.2,7.6			c-0.7,0.6-1.6,0.9-2.5,0.9c-0.1,0-0.2,0-0.3,0c-5.5-0.4-8.5-5.3-11.5-10.1c-3.8-6.2-7.7-12.5-16.8-12.5c-1.2,0-2.6,0.1-3.9,0.3			c-9.9,1.4-18.5,5.2-25.4,11.1c4.9-2.1,10.9-3.2,16.6-3.2c18.9,0,31.3,11.8,33,31.6c0,0.3,0,0.6,0,1c-1.5,10-8,16.3-16.2,21			c4.6-1.4,9.5-2.2,14.5-2.2C347.7,280.4,348.7,280.4,349.8,280.5L349.8,280.5z M406.8,252.6c-4.8,1.5-7.8,3.6-9.1,6.2			c-2.6,5.3,1.3,14,5,22.4c1.2,2.7,2.4,5.4,3.4,8.1c6.1-4.6,9.7-10.1,10.2-15.9C417.1,266.6,413.7,259.3,406.8,252.6z M289,243.8			c-0.4,0.6-0.7,1.2-1,1.8c-6.9,12.8-7.8,27.9-2.7,42.3c7.5-5.9,16.1-9.6,24.3-13.3c5-2.2,9.8-4.3,14.3-6.8			c-5.7-1.7-10-5.7-13.8-9.4c-4.3-4-8-7.5-13-7.7c-0.4,0-0.8-0.1-1.2-0.2C290.9,248.8,289.4,246,289,243.8z M318,244.6
	c3.5,3.8,6.6,7,10.9,7.3C326.6,247.8,322.5,245.1,318,244.6z M308.7,206.8c-2.5,1.5-5.3,2.5-8.1,3.5c-6.7,2.4-9.7,3.9-10.2,8
	c14.2-10.4,34.5-15.9,59.6-15.9c0.2,0,0.5,0,0.7,0c-5.4-9.1-16.2-17-25.6-18.4C323.5,194.6,317.5,202.9,308.7,206.8z
	M369.4,203.6c2.5,2.2,6.3,3.3,10.3,4.5c4,1.2,8.4,2.5,12.2,5.1c7.1-1.9,10-10,10.3-17.3c0.5-11.3-4.8-24.2-14.4-26.6
	c-2.4,0.2-4.8,0.5-7.3,0.7c-5.5,0.6-11.2,1.2-16.9,1.2c-7.7,0-18.5-1-28-8.8c0.8,2.3,0.5,4.1-0.1,5.4c-0.3,0.8-0.8,1.5-1.4,2.1
	C349.5,174.6,361,185.6,369.4,203.6z M308.7,183.7c-7,0-13.7,3.2-17.6,8.3c-1.5,2-2.5,4.1-2.8,6.3c1.2-0.5,2.3-0.9,3.5-1.4
	c9.5-3.8,15.9-6.7,17.2-13.1C308.8,183.7,308.8,183.7,308.7,183.7z M341.2,145.1c4.1,6.4,14.1,10.8,25.8,10.8
	c4.6,0,9.2-0.7,13.5-2c3.9-13.7,2.3-26.1-4.9-36c-2-2.7-4.3-5.1-7-7.3c-0.5,0.9-1.2,1.8-2,2.8c-0.4,0.5-0.9,0.8-1.5,1
	c-4.1,1.6-5.6,5.5-7.7,11.7C355.1,132.9,352,142,341.2,145.1z M308.7,148.6c0.3,1.7,1,3.3,2,4.6c0.2,0.3,0.5,0.6,0.8,0.8
	C310.7,151,309.7,149.4,308.7,148.6z M308.5,131.1c6.4,0.7,10.2,3.6,12.7,7.1c-2-10.3-0.2-21,5.8-28c2.4-4.8,9.5-8,16.7-9.8
	c-1.6-0.2-3.3-0.3-4.9-0.3c-10.2,0-18.7,3.4-24.1,9.5C310,115,307.9,122.2,308.5,131.1z M344,116.9c-2.3,1.1-4.3,2.7-5.7,4.9
	c-1.6,2.4-2.4,5.2-2.1,7.8c4.5-1.6,5.8-5.5,7.6-12C343.9,117.4,343.9,117.2,344,116.9z M293.6,80.4c-4.8,2-8.2,4.9-9.8,8.5
	c-0.7,1.6-1,3.3-1,5c0.9-0.8,1.9-1.6,2.8-2.4C290.6,87.6,293.6,84.9,293.6,80.4z"/>
            
            <!-- Add all smaller brain components here -->
		<path class="st3" d="M103.8,295.5c-27-7.2-15.5-64.8,9.1-39.1C122.1,269.4,104.7,282.2,103.8,295.5z"/>
		<path class="st3" d="M189.5,340.6c-6.6-14.3-27.6-27.9-13.5-44.2C196.6,304,203.1,324.6,189.5,340.6z"/>
		<path class="st3" d="M194.7,180.1c17.1-2.5,31.5,10,28.6,24.5C196.9,192.6,194.7,190.7,194.7,180.1z"/>
		<path class="st3" d="M211.4,75c15.2,5.1,20.9,14.6,15.9,26.1C213,92.5,207.7,83.8,211.4,75z"/>
		<path class="st3" d="M158.1,111.7c11.2-1.1,18.9,9.1,16.9,22.3C166.6,134.5,162.8,129.5,158.1,111.7z"/>
		<path class="st3" d="M198,242c-7.2,6.5-12.1,16.9-24.7,13.2C176.3,243.8,187.5,237.7,198,242z"/>
		<path class="st3" d="M203,143.5c1.5,9-3.2,15.3-12.1,16.7C193,147.5,195.7,143.7,203,143.5z"/>
		<path class="st3" d="M171.4,263.9c-0.1-0.2-0.1-0.5-0.2-0.7c0.3,0,0.5,0,0.8,0.1C171.8,263.5,171.6,263.7,171.4,263.9z"/>
		<path class="st3" d="M404.1,295.5c-4.9-17.6-24.6-40.1,3.8-47.4C425.5,263.9,425.1,283.2,404.1,295.5z"/>
		<path class="st3" d="M318.3,340.6c-13.7-15.8-7.8-34.8,13.5-44.3C346,312.8,325,326.3,318.3,340.6z"/>
		<path class="st3" d="M313.2,180.1c0.6,16-17.5,18.4-28.6,24.2C280.9,190.7,296.4,177.3,313.2,180.1z"/>
		<path class="st3" d="M296.7,75.1c4.6,14.9-9.8,18-15.7,26.7C275.1,90.2,281.7,79.1,296.7,75.1z"/>
		<path class="st3" d="M350,111.6c-4,9-3,21.3-16.8,22.7C328.9,123.6,337.6,111.5,350,111.6z"/>
		<path class="st3" d="M334.4,255.1c-12.6,3.8-17.4-6.8-24.6-13.1C320,237.6,331.7,243.8,334.4,255.1z"/>
		<path class="st3" d="M304.8,143.6c7-0.1,10.3,4.4,11.9,16.2C308.7,159.9,303.2,152.4,304.8,143.6z"/>
        </g>
    </g>
</g>

<a href="https://chloevoyer.com" target="_blank">
  <text x="495" y="495" class="credit" text-anchor="end" font-style="italic">
    chloevoyer.com
  </text>
</a>

</svg>